<mxfile host="Electron" agent="Mozilla/5.0 (Windows NT 10.0; Win64; x64) AppleWebKit/537.36 (KHTML, like Gecko) draw.io/24.7.17 Chrome/128.0.6613.36 Electron/32.0.1 Safari/537.36" version="24.7.17" pages="14">
  <diagram name="Main" id="bqraaaqqmG9TOwqflozs">
    <mxGraphModel dx="1434" dy="884" grid="1" gridSize="10" guides="1" tooltips="1" connect="1" arrows="1" fold="1" page="1" pageScale="1" pageWidth="850" pageHeight="1100" math="0" shadow="0">
      <root>
        <mxCell id="0" />
        <mxCell id="1" parent="0" />
        <mxCell id="qz8ZoIMlpBard0mHLblU-8" style="edgeStyle=orthogonalEdgeStyle;rounded=0;orthogonalLoop=1;jettySize=auto;html=1;exitX=0;exitY=0.5;exitDx=0;exitDy=0;" parent="1" source="6944dJ6SiSmlwrQkuGuM-2" target="6944dJ6SiSmlwrQkuGuM-40" edge="1">
          <mxGeometry relative="1" as="geometry" />
        </mxCell>
        <mxCell id="qz8ZoIMlpBard0mHLblU-9" value="Không" style="edgeLabel;html=1;align=center;verticalAlign=middle;resizable=0;points=[];" parent="qz8ZoIMlpBard0mHLblU-8" vertex="1" connectable="0">
          <mxGeometry x="-0.7681" y="1" relative="1" as="geometry">
            <mxPoint as="offset" />
          </mxGeometry>
        </mxCell>
        <mxCell id="qz8ZoIMlpBard0mHLblU-10" style="edgeStyle=orthogonalEdgeStyle;rounded=0;orthogonalLoop=1;jettySize=auto;html=1;exitX=1;exitY=0.5;exitDx=0;exitDy=0;" parent="1" source="6944dJ6SiSmlwrQkuGuM-2" target="6944dJ6SiSmlwrQkuGuM-47" edge="1">
          <mxGeometry relative="1" as="geometry" />
        </mxCell>
        <mxCell id="qz8ZoIMlpBard0mHLblU-11" value="Có" style="edgeLabel;html=1;align=center;verticalAlign=middle;resizable=0;points=[];" parent="qz8ZoIMlpBard0mHLblU-10" vertex="1" connectable="0">
          <mxGeometry x="-0.9064" y="-2" relative="1" as="geometry">
            <mxPoint y="-2" as="offset" />
          </mxGeometry>
        </mxCell>
        <mxCell id="6944dJ6SiSmlwrQkuGuM-2" value="Kiểm tra&#xa;đã đăng nhập?" style="rhombus;strokeWidth=2;whiteSpace=wrap;" parent="1" vertex="1">
          <mxGeometry x="326" y="270" width="154" height="154" as="geometry" />
        </mxCell>
        <mxCell id="qz8ZoIMlpBard0mHLblU-19" value="" style="edgeStyle=orthogonalEdgeStyle;rounded=0;orthogonalLoop=1;jettySize=auto;html=1;" parent="1" source="6944dJ6SiSmlwrQkuGuM-5" target="qz8ZoIMlpBard0mHLblU-18" edge="1">
          <mxGeometry relative="1" as="geometry" />
        </mxCell>
        <mxCell id="6944dJ6SiSmlwrQkuGuM-5" value="Lựa chọn?" style="rhombus;strokeWidth=2;whiteSpace=wrap;" parent="1" vertex="1">
          <mxGeometry x="144" y="679" width="122" height="122" as="geometry" />
        </mxCell>
        <mxCell id="qz8ZoIMlpBard0mHLblU-17" value="" style="edgeStyle=orthogonalEdgeStyle;rounded=0;orthogonalLoop=1;jettySize=auto;html=1;" parent="1" source="6944dJ6SiSmlwrQkuGuM-11" target="qz8ZoIMlpBard0mHLblU-16" edge="1">
          <mxGeometry relative="1" as="geometry" />
        </mxCell>
        <mxCell id="6944dJ6SiSmlwrQkuGuM-11" value="Lựa chọn?" style="rhombus;strokeWidth=2;whiteSpace=wrap;" parent="1" vertex="1">
          <mxGeometry x="505" y="742" width="122" height="122" as="geometry" />
        </mxCell>
        <mxCell id="6944dJ6SiSmlwrQkuGuM-21" value="" style="curved=1;startArrow=none;endArrow=block;exitX=0.5;exitY=1;entryX=0.5;entryY=0;rounded=0;exitDx=0;exitDy=0;" parent="1" source="6944dJ6SiSmlwrQkuGuM-43" target="6944dJ6SiSmlwrQkuGuM-5" edge="1">
          <mxGeometry relative="1" as="geometry">
            <Array as="points" />
            <mxPoint x="205" y="636" as="sourcePoint" />
          </mxGeometry>
        </mxCell>
        <mxCell id="6944dJ6SiSmlwrQkuGuM-27" value="" style="curved=1;startArrow=none;endArrow=block;exitX=0.5;exitY=1;entryX=0.5;entryY=0;rounded=0;exitDx=0;exitDy=0;" parent="1" source="6944dJ6SiSmlwrQkuGuM-48" target="6944dJ6SiSmlwrQkuGuM-11" edge="1">
          <mxGeometry relative="1" as="geometry">
            <Array as="points" />
            <mxPoint x="662" y="859" as="sourcePoint" />
          </mxGeometry>
        </mxCell>
        <mxCell id="6944dJ6SiSmlwrQkuGuM-42" value="" style="edgeStyle=orthogonalEdgeStyle;rounded=0;orthogonalLoop=1;jettySize=auto;html=1;entryX=0.5;entryY=0;entryDx=0;entryDy=0;" parent="1" source="6944dJ6SiSmlwrQkuGuM-40" target="6944dJ6SiSmlwrQkuGuM-43" edge="1">
          <mxGeometry relative="1" as="geometry">
            <mxPoint x="205" y="588" as="targetPoint" />
          </mxGeometry>
        </mxCell>
        <mxCell id="6944dJ6SiSmlwrQkuGuM-40" value="Hiển thị menu đăng nhập" style="shape=parallelogram;perimeter=parallelogramPerimeter;whiteSpace=wrap;html=1;fixedSize=1;" parent="1" vertex="1">
          <mxGeometry x="110" y="482" width="190" height="70" as="geometry" />
        </mxCell>
        <mxCell id="6944dJ6SiSmlwrQkuGuM-43" value="Nhập lựa chọn" style="shape=parallelogram;perimeter=parallelogramPerimeter;whiteSpace=wrap;html=1;fixedSize=1;" parent="1" vertex="1">
          <mxGeometry x="145" y="588" width="120" height="60" as="geometry" />
        </mxCell>
        <mxCell id="qz8ZoIMlpBard0mHLblU-12" value="" style="edgeStyle=orthogonalEdgeStyle;rounded=0;orthogonalLoop=1;jettySize=auto;html=1;" parent="1" source="6944dJ6SiSmlwrQkuGuM-47" target="6944dJ6SiSmlwrQkuGuM-48" edge="1">
          <mxGeometry relative="1" as="geometry" />
        </mxCell>
        <mxCell id="6944dJ6SiSmlwrQkuGuM-47" value="Hiển thị menu ATM" style="shape=parallelogram;perimeter=parallelogramPerimeter;whiteSpace=wrap;html=1;fixedSize=1;" parent="1" vertex="1">
          <mxGeometry x="485" y="496" width="160" height="70" as="geometry" />
        </mxCell>
        <mxCell id="6944dJ6SiSmlwrQkuGuM-48" value="Nhập lựa chọn" style="shape=parallelogram;perimeter=parallelogramPerimeter;whiteSpace=wrap;html=1;fixedSize=1;" parent="1" vertex="1">
          <mxGeometry x="505" y="633" width="120" height="60" as="geometry" />
        </mxCell>
        <mxCell id="tiYcyyqNzSUak7Lqe0cN-3" value="" style="edgeStyle=orthogonalEdgeStyle;rounded=0;orthogonalLoop=1;jettySize=auto;html=1;" edge="1" parent="1" source="6944dJ6SiSmlwrQkuGuM-56" target="tiYcyyqNzSUak7Lqe0cN-2">
          <mxGeometry relative="1" as="geometry" />
        </mxCell>
        <mxCell id="6944dJ6SiSmlwrQkuGuM-56" value="Bắt đầu" style="ellipse;whiteSpace=wrap;html=1;" parent="1" vertex="1">
          <mxGeometry x="348" y="20" width="110" height="60" as="geometry" />
        </mxCell>
        <mxCell id="qz8ZoIMlpBard0mHLblU-16" value="1. Rút tiền&lt;div&gt;2. Chuyển tiền&lt;/div&gt;&lt;div&gt;3. Đổi mã PIN&lt;/div&gt;&lt;div&gt;4. Gửi tiền&lt;/div&gt;&lt;div&gt;5. Xem lịch sử giao dịch&lt;/div&gt;&lt;div&gt;6. Đăng xuất&lt;/div&gt;" style="shape=process;whiteSpace=wrap;html=1;backgroundOutline=1;" parent="1" vertex="1">
          <mxGeometry x="471" y="922" width="190" height="110" as="geometry" />
        </mxCell>
        <mxCell id="qz8ZoIMlpBard0mHLblU-21" value="" style="edgeStyle=orthogonalEdgeStyle;rounded=0;orthogonalLoop=1;jettySize=auto;html=1;" parent="1" source="qz8ZoIMlpBard0mHLblU-18" target="qz8ZoIMlpBard0mHLblU-20" edge="1">
          <mxGeometry relative="1" as="geometry" />
        </mxCell>
        <mxCell id="qz8ZoIMlpBard0mHLblU-18" value="1. Tạo tài khoản mới&lt;div&gt;2. Đăng nhập&lt;/div&gt;&lt;div&gt;3. Kết thúc chương trình&lt;/div&gt;" style="shape=process;whiteSpace=wrap;html=1;backgroundOutline=1;" parent="1" vertex="1">
          <mxGeometry x="120" y="858" width="170" height="90" as="geometry" />
        </mxCell>
        <mxCell id="qz8ZoIMlpBard0mHLblU-20" value="Kết thúc" style="ellipse;whiteSpace=wrap;html=1;" parent="1" vertex="1">
          <mxGeometry x="150" y="1008" width="110" height="60" as="geometry" />
        </mxCell>
        <mxCell id="tiYcyyqNzSUak7Lqe0cN-4" value="" style="edgeStyle=orthogonalEdgeStyle;rounded=0;orthogonalLoop=1;jettySize=auto;html=1;" edge="1" parent="1" source="tiYcyyqNzSUak7Lqe0cN-2" target="6944dJ6SiSmlwrQkuGuM-2">
          <mxGeometry relative="1" as="geometry" />
        </mxCell>
        <mxCell id="tiYcyyqNzSUak7Lqe0cN-2" value="Menu" style="shape=parallelogram;perimeter=parallelogramPerimeter;whiteSpace=wrap;html=1;fixedSize=1;" vertex="1" parent="1">
          <mxGeometry x="343" y="150" width="120" height="60" as="geometry" />
        </mxCell>
      </root>
    </mxGraphModel>
  </diagram>
  <diagram id="9-8FGZhsFKdJmouA0Nom" name="Savetofile">
    <mxGraphModel dx="1050" dy="669" grid="1" gridSize="10" guides="1" tooltips="1" connect="1" arrows="1" fold="1" page="1" pageScale="1" pageWidth="850" pageHeight="1100" math="0" shadow="0">
      <root>
        <mxCell id="0" />
        <mxCell id="1" parent="0" />
        <mxCell id="LJ9pIkLeXEQ-3yvKbWv4-5" style="edgeStyle=orthogonalEdgeStyle;rounded=0;orthogonalLoop=1;jettySize=auto;html=1;exitX=0;exitY=0.5;exitDx=0;exitDy=0;entryX=0.5;entryY=0;entryDx=0;entryDy=0;" edge="1" parent="1" source="1j8JxybRTITn7WpkEKR2-4" target="1j8JxybRTITn7WpkEKR2-19">
          <mxGeometry relative="1" as="geometry" />
        </mxCell>
        <mxCell id="LJ9pIkLeXEQ-3yvKbWv4-9" value="Có" style="edgeLabel;html=1;align=center;verticalAlign=middle;resizable=0;points=[];" vertex="1" connectable="0" parent="LJ9pIkLeXEQ-3yvKbWv4-5">
          <mxGeometry x="-0.6994" y="-2" relative="1" as="geometry">
            <mxPoint as="offset" />
          </mxGeometry>
        </mxCell>
        <mxCell id="LJ9pIkLeXEQ-3yvKbWv4-7" style="edgeStyle=orthogonalEdgeStyle;rounded=0;orthogonalLoop=1;jettySize=auto;html=1;exitX=1;exitY=0.5;exitDx=0;exitDy=0;" edge="1" parent="1" source="1j8JxybRTITn7WpkEKR2-4" target="1j8JxybRTITn7WpkEKR2-20">
          <mxGeometry relative="1" as="geometry" />
        </mxCell>
        <mxCell id="LJ9pIkLeXEQ-3yvKbWv4-8" value="Không" style="edgeLabel;html=1;align=center;verticalAlign=middle;resizable=0;points=[];" vertex="1" connectable="0" parent="LJ9pIkLeXEQ-3yvKbWv4-7">
          <mxGeometry x="-0.7444" y="3" relative="1" as="geometry">
            <mxPoint y="1" as="offset" />
          </mxGeometry>
        </mxCell>
        <mxCell id="1j8JxybRTITn7WpkEKR2-4" value="Mở thành công?" style="rhombus;strokeWidth=2;whiteSpace=wrap;" parent="1" vertex="1">
          <mxGeometry x="349" y="220" width="161" height="161" as="geometry" />
        </mxCell>
        <mxCell id="1j8JxybRTITn7WpkEKR2-9" value="" style="curved=1;startArrow=none;endArrow=block;exitX=0.5;exitY=1;entryX=0.5;entryY=0;rounded=0;entryDx=0;entryDy=0;exitDx=0;exitDy=0;" parent="1" source="1j8JxybRTITn7WpkEKR2-23" target="1j8JxybRTITn7WpkEKR2-17" edge="1">
          <mxGeometry relative="1" as="geometry">
            <Array as="points" />
            <mxPoint x="429" y="68" as="sourcePoint" />
            <mxPoint x="429.5" y="118" as="targetPoint" />
          </mxGeometry>
        </mxCell>
        <mxCell id="LJ9pIkLeXEQ-3yvKbWv4-4" value="" style="edgeStyle=orthogonalEdgeStyle;rounded=0;orthogonalLoop=1;jettySize=auto;html=1;" edge="1" parent="1" source="1j8JxybRTITn7WpkEKR2-17" target="1j8JxybRTITn7WpkEKR2-4">
          <mxGeometry relative="1" as="geometry" />
        </mxCell>
        <mxCell id="1j8JxybRTITn7WpkEKR2-17" value="Tạo và mở&lt;div&gt;tên file để ghi&lt;/div&gt;" style="shape=parallelogram;perimeter=parallelogramPerimeter;whiteSpace=wrap;html=1;fixedSize=1;" parent="1" vertex="1">
          <mxGeometry x="369.5" y="110" width="120" height="60" as="geometry" />
        </mxCell>
        <mxCell id="LJ9pIkLeXEQ-3yvKbWv4-6" value="" style="edgeStyle=orthogonalEdgeStyle;rounded=0;orthogonalLoop=1;jettySize=auto;html=1;" edge="1" parent="1" source="1j8JxybRTITn7WpkEKR2-19" target="1j8JxybRTITn7WpkEKR2-21">
          <mxGeometry relative="1" as="geometry" />
        </mxCell>
        <mxCell id="1j8JxybRTITn7WpkEKR2-19" value="Ghi thông tin thẻ" style="shape=parallelogram;perimeter=parallelogramPerimeter;whiteSpace=wrap;html=1;fixedSize=1;" parent="1" vertex="1">
          <mxGeometry x="224.5" y="420" width="150" height="60" as="geometry" />
        </mxCell>
        <mxCell id="LJ9pIkLeXEQ-3yvKbWv4-11" style="edgeStyle=orthogonalEdgeStyle;rounded=0;orthogonalLoop=1;jettySize=auto;html=1;exitX=0.5;exitY=1;exitDx=0;exitDy=0;entryX=0.5;entryY=0;entryDx=0;entryDy=0;" edge="1" parent="1" source="1j8JxybRTITn7WpkEKR2-20" target="1j8JxybRTITn7WpkEKR2-22">
          <mxGeometry relative="1" as="geometry" />
        </mxCell>
        <mxCell id="1j8JxybRTITn7WpkEKR2-20" value="Thông báo lỗi" style="shape=parallelogram;perimeter=parallelogramPerimeter;whiteSpace=wrap;html=1;fixedSize=1;" parent="1" vertex="1">
          <mxGeometry x="489.5" y="420" width="140" height="60" as="geometry" />
        </mxCell>
        <mxCell id="LJ9pIkLeXEQ-3yvKbWv4-10" style="edgeStyle=orthogonalEdgeStyle;rounded=0;orthogonalLoop=1;jettySize=auto;html=1;exitX=0.5;exitY=1;exitDx=0;exitDy=0;" edge="1" parent="1" source="1j8JxybRTITn7WpkEKR2-21" target="1j8JxybRTITn7WpkEKR2-22">
          <mxGeometry relative="1" as="geometry" />
        </mxCell>
        <mxCell id="1j8JxybRTITn7WpkEKR2-21" value="Đóng file" style="shape=parallelogram;perimeter=parallelogramPerimeter;whiteSpace=wrap;html=1;fixedSize=1;" parent="1" vertex="1">
          <mxGeometry x="239.5" y="540" width="120" height="60" as="geometry" />
        </mxCell>
        <mxCell id="1j8JxybRTITn7WpkEKR2-22" value="Kết thúc" style="ellipse;whiteSpace=wrap;html=1;" parent="1" vertex="1">
          <mxGeometry x="370" y="690" width="110" height="50" as="geometry" />
        </mxCell>
        <mxCell id="1j8JxybRTITn7WpkEKR2-23" value="Bắt đầu" style="ellipse;whiteSpace=wrap;html=1;" parent="1" vertex="1">
          <mxGeometry x="374.5" y="20" width="110" height="50" as="geometry" />
        </mxCell>
      </root>
    </mxGraphModel>
  </diagram>
  <diagram id="I4l-6kqkvcqa1aQ0OK7R" name="LoadFromFile">
    <mxGraphModel dx="1050" dy="669" grid="1" gridSize="10" guides="1" tooltips="1" connect="1" arrows="1" fold="1" page="1" pageScale="1" pageWidth="850" pageHeight="1100" math="0" shadow="0">
      <root>
        <mxCell id="0" />
        <mxCell id="1" parent="0" />
        <mxCell id="sJgKqQNHi-dDbf10hSum-1" style="edgeStyle=orthogonalEdgeStyle;rounded=0;orthogonalLoop=1;jettySize=auto;html=1;exitX=0;exitY=0.5;exitDx=0;exitDy=0;entryX=0.5;entryY=0;entryDx=0;entryDy=0;" edge="1" parent="1" source="qT0n6agIfDpoKBM0xFei-4" target="qT0n6agIfDpoKBM0xFei-42">
          <mxGeometry relative="1" as="geometry" />
        </mxCell>
        <mxCell id="sJgKqQNHi-dDbf10hSum-3" value="Không" style="edgeLabel;html=1;align=center;verticalAlign=middle;resizable=0;points=[];" vertex="1" connectable="0" parent="sJgKqQNHi-dDbf10hSum-1">
          <mxGeometry x="-0.6748" y="2" relative="1" as="geometry">
            <mxPoint as="offset" />
          </mxGeometry>
        </mxCell>
        <mxCell id="sJgKqQNHi-dDbf10hSum-2" style="edgeStyle=orthogonalEdgeStyle;rounded=0;orthogonalLoop=1;jettySize=auto;html=1;exitX=1;exitY=0.5;exitDx=0;exitDy=0;" edge="1" parent="1" source="qT0n6agIfDpoKBM0xFei-4" target="qT0n6agIfDpoKBM0xFei-31">
          <mxGeometry relative="1" as="geometry" />
        </mxCell>
        <mxCell id="sJgKqQNHi-dDbf10hSum-4" value="Có" style="edgeLabel;html=1;align=center;verticalAlign=middle;resizable=0;points=[];" vertex="1" connectable="0" parent="sJgKqQNHi-dDbf10hSum-2">
          <mxGeometry x="-0.7384" y="3" relative="1" as="geometry">
            <mxPoint y="1" as="offset" />
          </mxGeometry>
        </mxCell>
        <mxCell id="qT0n6agIfDpoKBM0xFei-4" value="Mở thành công?" style="rhombus;strokeWidth=2;whiteSpace=wrap;" parent="1" vertex="1">
          <mxGeometry x="322" y="315" width="161" height="161" as="geometry" />
        </mxCell>
        <mxCell id="sJgKqQNHi-dDbf10hSum-5" style="edgeStyle=orthogonalEdgeStyle;rounded=0;orthogonalLoop=1;jettySize=auto;html=1;exitX=0;exitY=0.5;exitDx=0;exitDy=0;" edge="1" parent="1" source="qT0n6agIfDpoKBM0xFei-8" target="qT0n6agIfDpoKBM0xFei-33">
          <mxGeometry relative="1" as="geometry" />
        </mxCell>
        <mxCell id="sJgKqQNHi-dDbf10hSum-6" value="Không" style="edgeLabel;html=1;align=center;verticalAlign=middle;resizable=0;points=[];" vertex="1" connectable="0" parent="sJgKqQNHi-dDbf10hSum-5">
          <mxGeometry x="-0.742" y="-3" relative="1" as="geometry">
            <mxPoint as="offset" />
          </mxGeometry>
        </mxCell>
        <mxCell id="sJgKqQNHi-dDbf10hSum-7" style="edgeStyle=orthogonalEdgeStyle;rounded=0;orthogonalLoop=1;jettySize=auto;html=1;exitX=1;exitY=0.5;exitDx=0;exitDy=0;" edge="1" parent="1" source="qT0n6agIfDpoKBM0xFei-8" target="qT0n6agIfDpoKBM0xFei-34">
          <mxGeometry relative="1" as="geometry" />
        </mxCell>
        <mxCell id="sJgKqQNHi-dDbf10hSum-12" value="Có" style="edgeLabel;html=1;align=center;verticalAlign=middle;resizable=0;points=[];" vertex="1" connectable="0" parent="sJgKqQNHi-dDbf10hSum-7">
          <mxGeometry x="-0.7949" relative="1" as="geometry">
            <mxPoint y="1" as="offset" />
          </mxGeometry>
        </mxCell>
        <mxCell id="qT0n6agIfDpoKBM0xFei-8" value="Đọc thành công?" style="rhombus;strokeWidth=2;whiteSpace=wrap;" parent="1" vertex="1">
          <mxGeometry x="487.5" y="660" width="167" height="167" as="geometry" />
        </mxCell>
        <mxCell id="qT0n6agIfDpoKBM0xFei-14" value="" style="curved=1;startArrow=none;endArrow=block;exitX=0.5;exitY=1;entryX=0.5;entryY=0;rounded=0;entryDx=0;entryDy=0;exitDx=0;exitDy=0;" parent="1" source="qT0n6agIfDpoKBM0xFei-43" target="qT0n6agIfDpoKBM0xFei-28" edge="1">
          <mxGeometry relative="1" as="geometry">
            <Array as="points" />
            <mxPoint x="402.5" y="68" as="sourcePoint" />
            <mxPoint x="403" y="118" as="targetPoint" />
          </mxGeometry>
        </mxCell>
        <mxCell id="qT0n6agIfDpoKBM0xFei-15" value="" style="curved=1;startArrow=none;endArrow=block;exitX=0.5;exitY=1;entryX=0.5;entryY=0;rounded=0;exitDx=0;exitDy=0;entryDx=0;entryDy=0;" parent="1" source="qT0n6agIfDpoKBM0xFei-28" target="qT0n6agIfDpoKBM0xFei-29" edge="1">
          <mxGeometry relative="1" as="geometry">
            <Array as="points" />
            <mxPoint x="403" y="166" as="sourcePoint" />
            <mxPoint x="402.5" y="217" as="targetPoint" />
          </mxGeometry>
        </mxCell>
        <mxCell id="qT0n6agIfDpoKBM0xFei-16" value="" style="curved=1;startArrow=none;endArrow=block;exitX=0.5;exitY=1;entryX=0.5;entryY=0;rounded=0;" parent="1" target="qT0n6agIfDpoKBM0xFei-4" edge="1">
          <mxGeometry relative="1" as="geometry">
            <Array as="points" />
            <mxPoint x="402.5" y="265" as="sourcePoint" />
          </mxGeometry>
        </mxCell>
        <mxCell id="qT0n6agIfDpoKBM0xFei-25" value="" style="curved=1;startArrow=none;endArrow=block;exitX=0.5;exitY=1;entryX=0.5;entryY=0;rounded=0;exitDx=0;exitDy=0;entryDx=0;entryDy=0;" parent="1" source="qT0n6agIfDpoKBM0xFei-34" target="qT0n6agIfDpoKBM0xFei-36" edge="1">
          <mxGeometry relative="1" as="geometry">
            <Array as="points" />
            <mxPoint x="586.5" y="1035" as="sourcePoint" />
            <mxPoint x="586" y="1086" as="targetPoint" />
          </mxGeometry>
        </mxCell>
        <mxCell id="qT0n6agIfDpoKBM0xFei-28" value="Tạo tên file" style="shape=parallelogram;perimeter=parallelogramPerimeter;whiteSpace=wrap;html=1;fixedSize=1;" parent="1" vertex="1">
          <mxGeometry x="337.5" y="120" width="130" height="60" as="geometry" />
        </mxCell>
        <mxCell id="qT0n6agIfDpoKBM0xFei-29" value="Mở file để đọc" style="shape=parallelogram;perimeter=parallelogramPerimeter;whiteSpace=wrap;html=1;fixedSize=1;" parent="1" vertex="1">
          <mxGeometry x="327.5" y="220" width="150" height="50" as="geometry" />
        </mxCell>
        <mxCell id="qT0n6agIfDpoKBM0xFei-32" value="" style="edgeStyle=orthogonalEdgeStyle;rounded=0;orthogonalLoop=1;jettySize=auto;html=1;" parent="1" source="qT0n6agIfDpoKBM0xFei-31" target="qT0n6agIfDpoKBM0xFei-8" edge="1">
          <mxGeometry relative="1" as="geometry" />
        </mxCell>
        <mxCell id="qT0n6agIfDpoKBM0xFei-31" value="Đọc thông tin thẻ" style="shape=parallelogram;perimeter=parallelogramPerimeter;whiteSpace=wrap;html=1;fixedSize=1;" parent="1" vertex="1">
          <mxGeometry x="496" y="520" width="150" height="60" as="geometry" />
        </mxCell>
        <mxCell id="qT0n6agIfDpoKBM0xFei-41" style="edgeStyle=orthogonalEdgeStyle;rounded=0;orthogonalLoop=1;jettySize=auto;html=1;exitX=0.5;exitY=1;exitDx=0;exitDy=0;entryX=0.5;entryY=0;entryDx=0;entryDy=0;" parent="1" source="qT0n6agIfDpoKBM0xFei-33" target="qT0n6agIfDpoKBM0xFei-39" edge="1">
          <mxGeometry relative="1" as="geometry" />
        </mxCell>
        <mxCell id="qT0n6agIfDpoKBM0xFei-33" value="Thông báo lỗi" style="shape=parallelogram;perimeter=parallelogramPerimeter;whiteSpace=wrap;html=1;fixedSize=1;" parent="1" vertex="1">
          <mxGeometry x="346.5" y="890" width="130" height="60" as="geometry" />
        </mxCell>
        <mxCell id="qT0n6agIfDpoKBM0xFei-34" value="Đóng file" style="shape=parallelogram;perimeter=parallelogramPerimeter;whiteSpace=wrap;html=1;fixedSize=1;" parent="1" vertex="1">
          <mxGeometry x="646" y="890" width="120" height="60" as="geometry" />
        </mxCell>
        <mxCell id="sJgKqQNHi-dDbf10hSum-11" style="edgeStyle=orthogonalEdgeStyle;rounded=0;orthogonalLoop=1;jettySize=auto;html=1;exitX=0.5;exitY=1;exitDx=0;exitDy=0;entryX=1;entryY=0.5;entryDx=0;entryDy=0;" edge="1" parent="1" source="qT0n6agIfDpoKBM0xFei-36" target="qT0n6agIfDpoKBM0xFei-37">
          <mxGeometry relative="1" as="geometry" />
        </mxCell>
        <mxCell id="qT0n6agIfDpoKBM0xFei-36" value="Trả về 1" style="shape=parallelogram;perimeter=parallelogramPerimeter;whiteSpace=wrap;html=1;fixedSize=1;" parent="1" vertex="1">
          <mxGeometry x="646" y="986" width="120" height="60" as="geometry" />
        </mxCell>
        <mxCell id="qT0n6agIfDpoKBM0xFei-37" value="Kết thúc" style="ellipse;whiteSpace=wrap;html=1;" parent="1" vertex="1">
          <mxGeometry x="425" y="1160" width="110" height="50" as="geometry" />
        </mxCell>
        <mxCell id="sJgKqQNHi-dDbf10hSum-10" style="edgeStyle=orthogonalEdgeStyle;rounded=0;orthogonalLoop=1;jettySize=auto;html=1;exitX=0.5;exitY=1;exitDx=0;exitDy=0;entryX=0;entryY=0.5;entryDx=0;entryDy=0;" edge="1" parent="1" source="qT0n6agIfDpoKBM0xFei-38" target="qT0n6agIfDpoKBM0xFei-37">
          <mxGeometry relative="1" as="geometry" />
        </mxCell>
        <mxCell id="qT0n6agIfDpoKBM0xFei-38" value="Trả về 0" style="shape=parallelogram;perimeter=parallelogramPerimeter;whiteSpace=wrap;html=1;fixedSize=1;" parent="1" vertex="1">
          <mxGeometry x="250" y="1080" width="120" height="60" as="geometry" />
        </mxCell>
        <mxCell id="sJgKqQNHi-dDbf10hSum-9" style="edgeStyle=orthogonalEdgeStyle;rounded=0;orthogonalLoop=1;jettySize=auto;html=1;exitX=0.5;exitY=1;exitDx=0;exitDy=0;entryX=1;entryY=0.5;entryDx=0;entryDy=0;" edge="1" parent="1" source="qT0n6agIfDpoKBM0xFei-39" target="qT0n6agIfDpoKBM0xFei-38">
          <mxGeometry relative="1" as="geometry">
            <Array as="points">
              <mxPoint x="408" y="1110" />
            </Array>
          </mxGeometry>
        </mxCell>
        <mxCell id="qT0n6agIfDpoKBM0xFei-39" value="Đóng file" style="shape=parallelogram;perimeter=parallelogramPerimeter;whiteSpace=wrap;html=1;fixedSize=1;" parent="1" vertex="1">
          <mxGeometry x="347.5" y="986" width="120" height="60" as="geometry" />
        </mxCell>
        <mxCell id="sJgKqQNHi-dDbf10hSum-8" style="edgeStyle=orthogonalEdgeStyle;rounded=0;orthogonalLoop=1;jettySize=auto;html=1;exitX=0.5;exitY=1;exitDx=0;exitDy=0;entryX=0;entryY=0.5;entryDx=0;entryDy=0;" edge="1" parent="1" source="qT0n6agIfDpoKBM0xFei-42" target="qT0n6agIfDpoKBM0xFei-38">
          <mxGeometry relative="1" as="geometry">
            <Array as="points">
              <mxPoint x="230" y="1110" />
            </Array>
          </mxGeometry>
        </mxCell>
        <mxCell id="qT0n6agIfDpoKBM0xFei-42" value="Thông báo lỗi" style="shape=parallelogram;perimeter=parallelogramPerimeter;whiteSpace=wrap;html=1;fixedSize=1;" parent="1" vertex="1">
          <mxGeometry x="170" y="520" width="120" height="60" as="geometry" />
        </mxCell>
        <mxCell id="qT0n6agIfDpoKBM0xFei-43" value="Bắt đầu" style="ellipse;whiteSpace=wrap;html=1;" parent="1" vertex="1">
          <mxGeometry x="346.5" y="20" width="110" height="50" as="geometry" />
        </mxCell>
      </root>
    </mxGraphModel>
  </diagram>
  <diagram id="k213jj1XU7BglJDu2IND" name="printTransactionReceipt">
    <mxGraphModel dx="1050" dy="669" grid="1" gridSize="10" guides="1" tooltips="1" connect="1" arrows="1" fold="1" page="1" pageScale="1" pageWidth="850" pageHeight="1100" math="0" shadow="0">
      <root>
        <mxCell id="0" />
        <mxCell id="1" parent="0" />
        <mxCell id="X6uzNhEhaA2EKK88rBO2-3" style="edgeStyle=orthogonalEdgeStyle;rounded=0;orthogonalLoop=1;jettySize=auto;html=1;exitX=0;exitY=0.5;exitDx=0;exitDy=0;" edge="1" parent="1" source="c3kzS8fmO-O1TOccED2--3" target="c3kzS8fmO-O1TOccED2--28">
          <mxGeometry relative="1" as="geometry" />
        </mxCell>
        <mxCell id="X6uzNhEhaA2EKK88rBO2-4" value="Có" style="edgeLabel;html=1;align=center;verticalAlign=middle;resizable=0;points=[];" vertex="1" connectable="0" parent="X6uzNhEhaA2EKK88rBO2-3">
          <mxGeometry x="-0.7682" y="-1" relative="1" as="geometry">
            <mxPoint as="offset" />
          </mxGeometry>
        </mxCell>
        <mxCell id="X6uzNhEhaA2EKK88rBO2-19" style="edgeStyle=orthogonalEdgeStyle;rounded=0;orthogonalLoop=1;jettySize=auto;html=1;exitX=1;exitY=0.5;exitDx=0;exitDy=0;" edge="1" parent="1" source="c3kzS8fmO-O1TOccED2--3" target="c3kzS8fmO-O1TOccED2--33">
          <mxGeometry relative="1" as="geometry" />
        </mxCell>
        <mxCell id="X6uzNhEhaA2EKK88rBO2-20" value="Không" style="edgeLabel;html=1;align=center;verticalAlign=middle;resizable=0;points=[];" vertex="1" connectable="0" parent="X6uzNhEhaA2EKK88rBO2-19">
          <mxGeometry x="-0.8454" y="2" relative="1" as="geometry">
            <mxPoint as="offset" />
          </mxGeometry>
        </mxCell>
        <mxCell id="c3kzS8fmO-O1TOccED2--3" value="Xác nhận in?" style="rhombus;strokeWidth=2;whiteSpace=wrap;" parent="1" vertex="1">
          <mxGeometry x="358" y="217" width="140" height="140" as="geometry" />
        </mxCell>
        <mxCell id="X6uzNhEhaA2EKK88rBO2-6" style="edgeStyle=orthogonalEdgeStyle;rounded=0;orthogonalLoop=1;jettySize=auto;html=1;exitX=0;exitY=0.5;exitDx=0;exitDy=0;" edge="1" parent="1" source="c3kzS8fmO-O1TOccED2--6" target="c3kzS8fmO-O1TOccED2--29">
          <mxGeometry relative="1" as="geometry" />
        </mxCell>
        <mxCell id="X6uzNhEhaA2EKK88rBO2-8" value="Chuyển tiền" style="edgeLabel;html=1;align=center;verticalAlign=middle;resizable=0;points=[];" vertex="1" connectable="0" parent="X6uzNhEhaA2EKK88rBO2-6">
          <mxGeometry x="-0.4396" y="-3" relative="1" as="geometry">
            <mxPoint x="10" y="3" as="offset" />
          </mxGeometry>
        </mxCell>
        <mxCell id="X6uzNhEhaA2EKK88rBO2-9" value="" style="edgeStyle=orthogonalEdgeStyle;rounded=0;orthogonalLoop=1;jettySize=auto;html=1;" edge="1" parent="1" source="c3kzS8fmO-O1TOccED2--6" target="c3kzS8fmO-O1TOccED2--30">
          <mxGeometry relative="1" as="geometry" />
        </mxCell>
        <mxCell id="X6uzNhEhaA2EKK88rBO2-10" value="Rút tiền" style="edgeLabel;html=1;align=center;verticalAlign=middle;resizable=0;points=[];" vertex="1" connectable="0" parent="X6uzNhEhaA2EKK88rBO2-9">
          <mxGeometry x="-0.3879" y="-1" relative="1" as="geometry">
            <mxPoint as="offset" />
          </mxGeometry>
        </mxCell>
        <mxCell id="X6uzNhEhaA2EKK88rBO2-11" style="edgeStyle=orthogonalEdgeStyle;rounded=0;orthogonalLoop=1;jettySize=auto;html=1;exitX=1;exitY=0.5;exitDx=0;exitDy=0;entryX=0.5;entryY=0;entryDx=0;entryDy=0;" edge="1" parent="1" source="c3kzS8fmO-O1TOccED2--6" target="c3kzS8fmO-O1TOccED2--31">
          <mxGeometry relative="1" as="geometry" />
        </mxCell>
        <mxCell id="X6uzNhEhaA2EKK88rBO2-12" value="Gửi tiền" style="edgeLabel;html=1;align=center;verticalAlign=middle;resizable=0;points=[];" vertex="1" connectable="0" parent="X6uzNhEhaA2EKK88rBO2-11">
          <mxGeometry x="-0.7788" y="4" relative="1" as="geometry">
            <mxPoint x="9" y="4" as="offset" />
          </mxGeometry>
        </mxCell>
        <mxCell id="c3kzS8fmO-O1TOccED2--6" value="Loại = ?" style="rhombus;strokeWidth=2;whiteSpace=wrap;" parent="1" vertex="1">
          <mxGeometry x="191.5" y="527" width="104" height="104" as="geometry" />
        </mxCell>
        <mxCell id="c3kzS8fmO-O1TOccED2--12" value="" style="curved=1;startArrow=none;endArrow=block;exitX=0.5;exitY=1;entryX=0.5;entryY=0;rounded=0;entryDx=0;entryDy=0;exitDx=0;exitDy=0;" parent="1" source="c3kzS8fmO-O1TOccED2--36" target="c3kzS8fmO-O1TOccED2--26" edge="1">
          <mxGeometry relative="1" as="geometry">
            <Array as="points" />
            <mxPoint x="428.5" y="68" as="sourcePoint" />
            <mxPoint x="428" y="118" as="targetPoint" />
          </mxGeometry>
        </mxCell>
        <mxCell id="c3kzS8fmO-O1TOccED2--13" value="" style="curved=1;startArrow=none;endArrow=block;exitX=0.5;exitY=1;entryX=0.5;entryY=0;rounded=0;exitDx=0;exitDy=0;" parent="1" source="c3kzS8fmO-O1TOccED2--26" target="c3kzS8fmO-O1TOccED2--3" edge="1">
          <mxGeometry relative="1" as="geometry">
            <Array as="points" />
            <mxPoint x="428" y="166" as="sourcePoint" />
          </mxGeometry>
        </mxCell>
        <mxCell id="c3kzS8fmO-O1TOccED2--26" value="Lấy thời gian hiện tại" style="shape=parallelogram;perimeter=parallelogramPerimeter;whiteSpace=wrap;html=1;fixedSize=1;" parent="1" vertex="1">
          <mxGeometry x="348.5" y="120" width="160" height="60" as="geometry" />
        </mxCell>
        <mxCell id="X6uzNhEhaA2EKK88rBO2-5" value="" style="edgeStyle=orthogonalEdgeStyle;rounded=0;orthogonalLoop=1;jettySize=auto;html=1;" edge="1" parent="1" source="c3kzS8fmO-O1TOccED2--28" target="c3kzS8fmO-O1TOccED2--6">
          <mxGeometry relative="1" as="geometry" />
        </mxCell>
        <mxCell id="X6uzNhEhaA2EKK88rBO2-16" style="edgeStyle=orthogonalEdgeStyle;rounded=0;orthogonalLoop=1;jettySize=auto;html=1;exitX=1;exitY=0.5;exitDx=0;exitDy=0;entryX=1;entryY=0.5;entryDx=0;entryDy=0;" edge="1" parent="1" source="c3kzS8fmO-O1TOccED2--28" target="c3kzS8fmO-O1TOccED2--32">
          <mxGeometry relative="1" as="geometry">
            <Array as="points">
              <mxPoint x="510" y="450" />
              <mxPoint x="510" y="860" />
            </Array>
          </mxGeometry>
        </mxCell>
        <mxCell id="c3kzS8fmO-O1TOccED2--28" value="Kiểm tra loại giao dịch" style="shape=parallelogram;perimeter=parallelogramPerimeter;whiteSpace=wrap;html=1;fixedSize=1;" parent="1" vertex="1">
          <mxGeometry x="138.5" y="420" width="210" height="60" as="geometry" />
        </mxCell>
        <mxCell id="X6uzNhEhaA2EKK88rBO2-13" style="edgeStyle=orthogonalEdgeStyle;rounded=0;orthogonalLoop=1;jettySize=auto;html=1;exitX=0.5;exitY=1;exitDx=0;exitDy=0;entryX=0.5;entryY=0;entryDx=0;entryDy=0;" edge="1" parent="1" source="c3kzS8fmO-O1TOccED2--29" target="c3kzS8fmO-O1TOccED2--32">
          <mxGeometry relative="1" as="geometry" />
        </mxCell>
        <mxCell id="c3kzS8fmO-O1TOccED2--29" value="In biên lai chuyển tiền" style="shape=parallelogram;perimeter=parallelogramPerimeter;whiteSpace=wrap;html=1;fixedSize=1;" parent="1" vertex="1">
          <mxGeometry x="10" y="697" width="150" height="60" as="geometry" />
        </mxCell>
        <mxCell id="X6uzNhEhaA2EKK88rBO2-14" value="" style="edgeStyle=orthogonalEdgeStyle;rounded=0;orthogonalLoop=1;jettySize=auto;html=1;" edge="1" parent="1" source="c3kzS8fmO-O1TOccED2--30" target="c3kzS8fmO-O1TOccED2--32">
          <mxGeometry relative="1" as="geometry" />
        </mxCell>
        <mxCell id="c3kzS8fmO-O1TOccED2--30" value="In biên lai rút tiền" style="shape=parallelogram;perimeter=parallelogramPerimeter;whiteSpace=wrap;html=1;fixedSize=1;" parent="1" vertex="1">
          <mxGeometry x="173.5" y="697" width="140" height="60" as="geometry" />
        </mxCell>
        <mxCell id="X6uzNhEhaA2EKK88rBO2-15" style="edgeStyle=orthogonalEdgeStyle;rounded=0;orthogonalLoop=1;jettySize=auto;html=1;exitX=0.5;exitY=1;exitDx=0;exitDy=0;" edge="1" parent="1" source="c3kzS8fmO-O1TOccED2--31" target="c3kzS8fmO-O1TOccED2--32">
          <mxGeometry relative="1" as="geometry" />
        </mxCell>
        <mxCell id="c3kzS8fmO-O1TOccED2--31" value="In biên lai gửi tiền" style="shape=parallelogram;perimeter=parallelogramPerimeter;whiteSpace=wrap;html=1;fixedSize=1;" parent="1" vertex="1">
          <mxGeometry x="343.5" y="697" width="140" height="60" as="geometry" />
        </mxCell>
        <mxCell id="X6uzNhEhaA2EKK88rBO2-17" style="edgeStyle=orthogonalEdgeStyle;rounded=0;orthogonalLoop=1;jettySize=auto;html=1;exitX=0.5;exitY=1;exitDx=0;exitDy=0;entryX=0;entryY=0.5;entryDx=0;entryDy=0;" edge="1" parent="1" source="c3kzS8fmO-O1TOccED2--32" target="c3kzS8fmO-O1TOccED2--35">
          <mxGeometry relative="1" as="geometry" />
        </mxCell>
        <mxCell id="X6uzNhEhaA2EKK88rBO2-18" value="Không" style="edgeLabel;html=1;align=center;verticalAlign=middle;resizable=0;points=[];" vertex="1" connectable="0" parent="X6uzNhEhaA2EKK88rBO2-17">
          <mxGeometry x="0.0953" y="3" relative="1" as="geometry">
            <mxPoint x="-1" y="3" as="offset" />
          </mxGeometry>
        </mxCell>
        <mxCell id="c3kzS8fmO-O1TOccED2--32" value="Hỏi tiếp tục?" style="shape=parallelogram;perimeter=parallelogramPerimeter;whiteSpace=wrap;html=1;fixedSize=1;" parent="1" vertex="1">
          <mxGeometry x="173.5" y="830" width="140" height="60" as="geometry" />
        </mxCell>
        <mxCell id="X6uzNhEhaA2EKK88rBO2-21" style="edgeStyle=orthogonalEdgeStyle;rounded=0;orthogonalLoop=1;jettySize=auto;html=1;exitX=0.5;exitY=1;exitDx=0;exitDy=0;entryX=1;entryY=0.5;entryDx=0;entryDy=0;" edge="1" parent="1" source="c3kzS8fmO-O1TOccED2--33" target="c3kzS8fmO-O1TOccED2--35">
          <mxGeometry relative="1" as="geometry" />
        </mxCell>
        <mxCell id="c3kzS8fmO-O1TOccED2--33" value="Thông báo không in" style="shape=parallelogram;perimeter=parallelogramPerimeter;whiteSpace=wrap;html=1;fixedSize=1;" parent="1" vertex="1">
          <mxGeometry x="560" y="802" width="150" height="50" as="geometry" />
        </mxCell>
        <mxCell id="c3kzS8fmO-O1TOccED2--35" value="Kết thúc" style="ellipse;whiteSpace=wrap;html=1;" parent="1" vertex="1">
          <mxGeometry x="373.5" y="900" width="110" height="60" as="geometry" />
        </mxCell>
        <mxCell id="c3kzS8fmO-O1TOccED2--36" value="Bắt đầu" style="ellipse;whiteSpace=wrap;html=1;" parent="1" vertex="1">
          <mxGeometry x="373.5" y="10" width="110" height="60" as="geometry" />
        </mxCell>
      </root>
    </mxGraphModel>
  </diagram>
  <diagram id="Y5PV-iwXQdka2_Aji6f2" name="saveTransactionHistory">
    <mxGraphModel dx="1050" dy="669" grid="1" gridSize="10" guides="1" tooltips="1" connect="1" arrows="1" fold="1" page="1" pageScale="1" pageWidth="850" pageHeight="1100" math="0" shadow="0">
      <root>
        <mxCell id="0" />
        <mxCell id="1" parent="0" />
        <mxCell id="c829i92Lo3eqbOzw-zb3-1" style="edgeStyle=orthogonalEdgeStyle;rounded=0;orthogonalLoop=1;jettySize=auto;html=1;exitX=0;exitY=0.5;exitDx=0;exitDy=0;entryX=0.5;entryY=0;entryDx=0;entryDy=0;" edge="1" parent="1" source="bDkBATSJ5_bJCV0lDOtp-4" target="bDkBATSJ5_bJCV0lDOtp-25">
          <mxGeometry relative="1" as="geometry" />
        </mxCell>
        <mxCell id="c829i92Lo3eqbOzw-zb3-2" value="Có" style="edgeLabel;html=1;align=center;verticalAlign=middle;resizable=0;points=[];" vertex="1" connectable="0" parent="c829i92Lo3eqbOzw-zb3-1">
          <mxGeometry x="-0.7373" y="-3" relative="1" as="geometry">
            <mxPoint y="3" as="offset" />
          </mxGeometry>
        </mxCell>
        <mxCell id="c829i92Lo3eqbOzw-zb3-7" style="edgeStyle=orthogonalEdgeStyle;rounded=0;orthogonalLoop=1;jettySize=auto;html=1;exitX=1;exitY=0.5;exitDx=0;exitDy=0;entryX=0.5;entryY=0;entryDx=0;entryDy=0;" edge="1" parent="1" source="bDkBATSJ5_bJCV0lDOtp-4" target="bDkBATSJ5_bJCV0lDOtp-28">
          <mxGeometry relative="1" as="geometry" />
        </mxCell>
        <mxCell id="c829i92Lo3eqbOzw-zb3-8" value="Không" style="edgeLabel;html=1;align=center;verticalAlign=middle;resizable=0;points=[];" vertex="1" connectable="0" parent="c829i92Lo3eqbOzw-zb3-7">
          <mxGeometry x="-0.9532" y="1" relative="1" as="geometry">
            <mxPoint x="8" y="1" as="offset" />
          </mxGeometry>
        </mxCell>
        <mxCell id="bDkBATSJ5_bJCV0lDOtp-4" value="Mở thành công?" style="rhombus;strokeWidth=2;whiteSpace=wrap;" parent="1" vertex="1">
          <mxGeometry x="239.5" y="305" width="161" height="161" as="geometry" />
        </mxCell>
        <mxCell id="c829i92Lo3eqbOzw-zb3-9" style="edgeStyle=orthogonalEdgeStyle;rounded=0;orthogonalLoop=1;jettySize=auto;html=1;exitX=1;exitY=0.5;exitDx=0;exitDy=0;entryX=1;entryY=0.25;entryDx=0;entryDy=0;" edge="1" parent="1" source="bDkBATSJ5_bJCV0lDOtp-8" target="bDkBATSJ5_bJCV0lDOtp-25">
          <mxGeometry relative="1" as="geometry">
            <Array as="points">
              <mxPoint x="320" y="826" />
              <mxPoint x="320" y="516" />
            </Array>
          </mxGeometry>
        </mxCell>
        <mxCell id="c829i92Lo3eqbOzw-zb3-10" value="Có" style="edgeLabel;html=1;align=center;verticalAlign=middle;resizable=0;points=[];" vertex="1" connectable="0" parent="c829i92Lo3eqbOzw-zb3-9">
          <mxGeometry x="-0.0722" y="1" relative="1" as="geometry">
            <mxPoint as="offset" />
          </mxGeometry>
        </mxCell>
        <mxCell id="bDkBATSJ5_bJCV0lDOtp-8" value="Có giao dịch nữa &#xa;không?" style="rhombus;strokeWidth=2;whiteSpace=wrap;" parent="1" vertex="1">
          <mxGeometry x="109.5" y="750" width="151" height="151" as="geometry" />
        </mxCell>
        <mxCell id="bDkBATSJ5_bJCV0lDOtp-11" value="" style="curved=1;startArrow=none;endArrow=block;exitX=0.5;exitY=1;entryX=0.5;entryY=0;rounded=0;entryDx=0;entryDy=0;exitDx=0;exitDy=0;" parent="1" source="bDkBATSJ5_bJCV0lDOtp-24" target="bDkBATSJ5_bJCV0lDOtp-22" edge="1">
          <mxGeometry relative="1" as="geometry">
            <Array as="points" />
            <mxPoint x="320" y="58" as="sourcePoint" />
            <mxPoint x="319.5" y="108" as="targetPoint" />
          </mxGeometry>
        </mxCell>
        <mxCell id="bDkBATSJ5_bJCV0lDOtp-12" value="" style="curved=1;startArrow=none;endArrow=block;exitX=0.5;exitY=1;entryX=0.5;entryY=0;rounded=0;exitDx=0;exitDy=0;entryDx=0;entryDy=0;" parent="1" source="bDkBATSJ5_bJCV0lDOtp-22" target="bDkBATSJ5_bJCV0lDOtp-23" edge="1">
          <mxGeometry relative="1" as="geometry">
            <Array as="points" />
            <mxPoint x="319.5" y="156" as="sourcePoint" />
            <mxPoint x="321.5" y="207" as="targetPoint" />
          </mxGeometry>
        </mxCell>
        <mxCell id="bDkBATSJ5_bJCV0lDOtp-13" value="" style="curved=1;startArrow=none;endArrow=block;exitX=0.5;exitY=1;entryX=0.5;entryY=0;rounded=0;exitDx=0;exitDy=0;" parent="1" source="bDkBATSJ5_bJCV0lDOtp-23" target="bDkBATSJ5_bJCV0lDOtp-4" edge="1">
          <mxGeometry relative="1" as="geometry">
            <Array as="points" />
            <mxPoint x="321.5" y="255" as="sourcePoint" />
          </mxGeometry>
        </mxCell>
        <mxCell id="bDkBATSJ5_bJCV0lDOtp-19" value="Không" style="curved=1;startArrow=none;endArrow=block;exitX=0.5;exitY=1;entryX=0.5;entryY=0;rounded=0;entryDx=0;entryDy=0;" parent="1" source="bDkBATSJ5_bJCV0lDOtp-8" target="bDkBATSJ5_bJCV0lDOtp-27" edge="1">
          <mxGeometry relative="1" as="geometry">
            <Array as="points" />
            <mxPoint x="224" y="959" as="targetPoint" />
          </mxGeometry>
        </mxCell>
        <mxCell id="bDkBATSJ5_bJCV0lDOtp-22" value="Tạo tên file" style="shape=parallelogram;perimeter=parallelogramPerimeter;whiteSpace=wrap;html=1;fixedSize=1;" parent="1" vertex="1">
          <mxGeometry x="260" y="100" width="120" height="60" as="geometry" />
        </mxCell>
        <mxCell id="bDkBATSJ5_bJCV0lDOtp-23" value="Mở file để thêm" style="shape=parallelogram;perimeter=parallelogramPerimeter;whiteSpace=wrap;html=1;fixedSize=1;" parent="1" vertex="1">
          <mxGeometry x="261.5" y="210" width="120" height="60" as="geometry" />
        </mxCell>
        <mxCell id="bDkBATSJ5_bJCV0lDOtp-24" value="Bắt đầu" style="ellipse;whiteSpace=wrap;html=1;" parent="1" vertex="1">
          <mxGeometry x="270" width="100" height="60" as="geometry" />
        </mxCell>
        <mxCell id="c829i92Lo3eqbOzw-zb3-3" value="" style="edgeStyle=orthogonalEdgeStyle;rounded=0;orthogonalLoop=1;jettySize=auto;html=1;" edge="1" parent="1" source="bDkBATSJ5_bJCV0lDOtp-25" target="bDkBATSJ5_bJCV0lDOtp-26">
          <mxGeometry relative="1" as="geometry" />
        </mxCell>
        <mxCell id="bDkBATSJ5_bJCV0lDOtp-25" value="Lặp qua giao dịch" style="shape=parallelogram;perimeter=parallelogramPerimeter;whiteSpace=wrap;html=1;fixedSize=1;" parent="1" vertex="1">
          <mxGeometry x="108.5" y="500" width="153" height="60" as="geometry" />
        </mxCell>
        <mxCell id="c829i92Lo3eqbOzw-zb3-4" value="" style="edgeStyle=orthogonalEdgeStyle;rounded=0;orthogonalLoop=1;jettySize=auto;html=1;" edge="1" parent="1" source="bDkBATSJ5_bJCV0lDOtp-26" target="bDkBATSJ5_bJCV0lDOtp-8">
          <mxGeometry relative="1" as="geometry" />
        </mxCell>
        <mxCell id="bDkBATSJ5_bJCV0lDOtp-26" value="Ghi thông tin giao dịch" style="shape=parallelogram;perimeter=parallelogramPerimeter;whiteSpace=wrap;html=1;fixedSize=1;" parent="1" vertex="1">
          <mxGeometry x="100" y="620" width="170" height="60" as="geometry" />
        </mxCell>
        <mxCell id="c829i92Lo3eqbOzw-zb3-5" style="edgeStyle=orthogonalEdgeStyle;rounded=0;orthogonalLoop=1;jettySize=auto;html=1;exitX=0.5;exitY=1;exitDx=0;exitDy=0;entryX=0;entryY=0.5;entryDx=0;entryDy=0;" edge="1" parent="1" source="bDkBATSJ5_bJCV0lDOtp-27" target="bDkBATSJ5_bJCV0lDOtp-29">
          <mxGeometry relative="1" as="geometry" />
        </mxCell>
        <mxCell id="bDkBATSJ5_bJCV0lDOtp-27" value="Đóng file" style="shape=parallelogram;perimeter=parallelogramPerimeter;whiteSpace=wrap;html=1;fixedSize=1;" parent="1" vertex="1">
          <mxGeometry x="125" y="958" width="120" height="60" as="geometry" />
        </mxCell>
        <mxCell id="c829i92Lo3eqbOzw-zb3-6" style="edgeStyle=orthogonalEdgeStyle;rounded=0;orthogonalLoop=1;jettySize=auto;html=1;exitX=0.5;exitY=1;exitDx=0;exitDy=0;entryX=1;entryY=0.5;entryDx=0;entryDy=0;" edge="1" parent="1" source="bDkBATSJ5_bJCV0lDOtp-28" target="bDkBATSJ5_bJCV0lDOtp-29">
          <mxGeometry relative="1" as="geometry" />
        </mxCell>
        <mxCell id="bDkBATSJ5_bJCV0lDOtp-28" value="Thông báo lỗi" style="shape=parallelogram;perimeter=parallelogramPerimeter;whiteSpace=wrap;html=1;fixedSize=1;" parent="1" vertex="1">
          <mxGeometry x="400.5" y="958" width="120" height="60" as="geometry" />
        </mxCell>
        <mxCell id="bDkBATSJ5_bJCV0lDOtp-29" value="Kết thúc" style="ellipse;whiteSpace=wrap;html=1;" parent="1" vertex="1">
          <mxGeometry x="271.5" y="1040" width="100" height="60" as="geometry" />
        </mxCell>
      </root>
    </mxGraphModel>
  </diagram>
  <diagram id="UNdAzJlg7Iq0sxHizu-0" name="displayMenu">
    <mxGraphModel dx="1434" dy="884" grid="1" gridSize="10" guides="1" tooltips="1" connect="1" arrows="1" fold="1" page="1" pageScale="1" pageWidth="850" pageHeight="1100" math="0" shadow="0">
      <root>
        <mxCell id="0" />
        <mxCell id="1" parent="0" />
        <mxCell id="ie8YzNIUDZbwmKUxrJHb-15" value="" style="curved=1;startArrow=none;endArrow=block;exitX=0.5;exitY=1;entryX=0.5;entryY=0;rounded=0;exitDx=0;exitDy=0;entryDx=0;entryDy=0;" edge="1" parent="1" source="ie8YzNIUDZbwmKUxrJHb-30" target="ie8YzNIUDZbwmKUxrJHb-32">
          <mxGeometry relative="1" as="geometry">
            <Array as="points" />
            <mxPoint x="425.5" y="227" as="sourcePoint" />
            <mxPoint x="404.5" y="277" as="targetPoint" />
          </mxGeometry>
        </mxCell>
        <mxCell id="ie8YzNIUDZbwmKUxrJHb-31" value="" style="edgeStyle=orthogonalEdgeStyle;rounded=0;orthogonalLoop=1;jettySize=auto;html=1;" edge="1" parent="1" source="ie8YzNIUDZbwmKUxrJHb-28" target="ie8YzNIUDZbwmKUxrJHb-30">
          <mxGeometry relative="1" as="geometry" />
        </mxCell>
        <mxCell id="ie8YzNIUDZbwmKUxrJHb-28" value="Bắt đầu" style="ellipse;whiteSpace=wrap;html=1;" vertex="1" parent="1">
          <mxGeometry x="370" y="30" width="110" height="60" as="geometry" />
        </mxCell>
        <mxCell id="ie8YzNIUDZbwmKUxrJHb-30" value="VTC Academy Bank - ATM Machine" style="shape=parallelogram;perimeter=parallelogramPerimeter;whiteSpace=wrap;html=1;fixedSize=1;" vertex="1" parent="1">
          <mxGeometry x="335" y="140" width="180" height="80" as="geometry" />
        </mxCell>
        <mxCell id="ie8YzNIUDZbwmKUxrJHb-34" style="edgeStyle=orthogonalEdgeStyle;rounded=0;orthogonalLoop=1;jettySize=auto;html=1;exitX=0.5;exitY=1;exitDx=0;exitDy=0;entryX=0.5;entryY=0;entryDx=0;entryDy=0;" edge="1" parent="1" source="ie8YzNIUDZbwmKUxrJHb-32" target="ie8YzNIUDZbwmKUxrJHb-33">
          <mxGeometry relative="1" as="geometry" />
        </mxCell>
        <mxCell id="ie8YzNIUDZbwmKUxrJHb-32" value="Hiển thị thông tin tài khoản" style="shape=parallelogram;perimeter=parallelogramPerimeter;whiteSpace=wrap;html=1;fixedSize=1;" vertex="1" parent="1">
          <mxGeometry x="340" y="280" width="170" height="80" as="geometry" />
        </mxCell>
        <mxCell id="ie8YzNIUDZbwmKUxrJHb-35" value="" style="edgeStyle=orthogonalEdgeStyle;rounded=0;orthogonalLoop=1;jettySize=auto;html=1;entryX=0.5;entryY=0;entryDx=0;entryDy=0;" edge="1" parent="1" source="ie8YzNIUDZbwmKUxrJHb-33" target="ie8YzNIUDZbwmKUxrJHb-36">
          <mxGeometry relative="1" as="geometry">
            <mxPoint x="381.5" y="637" as="targetPoint" />
          </mxGeometry>
        </mxCell>
        <mxCell id="ie8YzNIUDZbwmKUxrJHb-33" value="1. Hiển thị số tài khoản&lt;div&gt;2. Hiển thị mã PIN&lt;/div&gt;&lt;div&gt;3. Hiển thị số dư&lt;/div&gt;&lt;div&gt;4. Hiển thị tên tài khoản&lt;/div&gt;" style="shape=parallelogram;perimeter=parallelogramPerimeter;whiteSpace=wrap;html=1;fixedSize=1;" vertex="1" parent="1">
          <mxGeometry x="330" y="430" width="190" height="110" as="geometry" />
        </mxCell>
        <mxCell id="ie8YzNIUDZbwmKUxrJHb-38" value="" style="edgeStyle=orthogonalEdgeStyle;rounded=0;orthogonalLoop=1;jettySize=auto;html=1;" edge="1" parent="1" source="ie8YzNIUDZbwmKUxrJHb-36" target="ie8YzNIUDZbwmKUxrJHb-37">
          <mxGeometry relative="1" as="geometry" />
        </mxCell>
        <mxCell id="ie8YzNIUDZbwmKUxrJHb-36" value="Hiển thị menu tùy chọn" style="shape=parallelogram;perimeter=parallelogramPerimeter;whiteSpace=wrap;html=1;fixedSize=1;" vertex="1" parent="1">
          <mxGeometry x="345" y="620" width="160" height="60" as="geometry" />
        </mxCell>
        <mxCell id="ie8YzNIUDZbwmKUxrJHb-40" value="" style="edgeStyle=orthogonalEdgeStyle;rounded=0;orthogonalLoop=1;jettySize=auto;html=1;" edge="1" parent="1" source="ie8YzNIUDZbwmKUxrJHb-37" target="ie8YzNIUDZbwmKUxrJHb-39">
          <mxGeometry relative="1" as="geometry" />
        </mxCell>
        <mxCell id="ie8YzNIUDZbwmKUxrJHb-37" value="1. Rut tien&lt;div&gt;2. Chuyen tien&lt;/div&gt;&lt;div&gt;3. Doi ma PIN&lt;/div&gt;&lt;div&gt;4. Gui tien&lt;/div&gt;&lt;div&gt;5. Lich su giao dich&lt;/div&gt;&lt;div&gt;6. Dang xuat&lt;/div&gt;" style="shape=parallelogram;perimeter=parallelogramPerimeter;whiteSpace=wrap;html=1;fixedSize=1;" vertex="1" parent="1">
          <mxGeometry x="310" y="760" width="230" height="90" as="geometry" />
        </mxCell>
        <mxCell id="ie8YzNIUDZbwmKUxrJHb-42" value="" style="edgeStyle=orthogonalEdgeStyle;rounded=0;orthogonalLoop=1;jettySize=auto;html=1;" edge="1" parent="1" source="ie8YzNIUDZbwmKUxrJHb-39" target="ie8YzNIUDZbwmKUxrJHb-41">
          <mxGeometry relative="1" as="geometry" />
        </mxCell>
        <mxCell id="ie8YzNIUDZbwmKUxrJHb-39" value="Người dùng nhập lựa chọn" style="shape=parallelogram;perimeter=parallelogramPerimeter;whiteSpace=wrap;html=1;fixedSize=1;" vertex="1" parent="1">
          <mxGeometry x="335" y="910" width="180" height="70" as="geometry" />
        </mxCell>
        <mxCell id="ie8YzNIUDZbwmKUxrJHb-41" value="Kết thúc" style="ellipse;whiteSpace=wrap;html=1;" vertex="1" parent="1">
          <mxGeometry x="365" y="1030" width="120" height="60" as="geometry" />
        </mxCell>
      </root>
    </mxGraphModel>
  </diagram>
  <diagram id="IHcSNkH4fOJGLTqah5sJ" name="Login">
    <mxGraphModel dx="1050" dy="669" grid="1" gridSize="10" guides="1" tooltips="1" connect="1" arrows="1" fold="1" page="1" pageScale="1" pageWidth="850" pageHeight="1100" math="0" shadow="0">
      <root>
        <mxCell id="0" />
        <mxCell id="1" parent="0" />
        <mxCell id="a8ONa14zMbqqqfTtxne3-4" style="edgeStyle=orthogonalEdgeStyle;rounded=0;orthogonalLoop=1;jettySize=auto;html=1;exitX=1;exitY=0.5;exitDx=0;exitDy=0;" parent="1" source="jgc4jYTmu2P3NCcS7r46-4" target="jgc4jYTmu2P3NCcS7r46-35" edge="1">
          <mxGeometry relative="1" as="geometry" />
        </mxCell>
        <mxCell id="a8ONa14zMbqqqfTtxne3-5" value="Có" style="edgeLabel;html=1;align=center;verticalAlign=middle;resizable=0;points=[];" parent="a8ONa14zMbqqqfTtxne3-4" vertex="1" connectable="0">
          <mxGeometry x="-0.8438" y="-2" relative="1" as="geometry">
            <mxPoint x="-4" y="-15" as="offset" />
          </mxGeometry>
        </mxCell>
        <mxCell id="a8ONa14zMbqqqfTtxne3-6" style="edgeStyle=orthogonalEdgeStyle;rounded=0;orthogonalLoop=1;jettySize=auto;html=1;exitX=0;exitY=0.5;exitDx=0;exitDy=0;" parent="1" source="jgc4jYTmu2P3NCcS7r46-4" target="jgc4jYTmu2P3NCcS7r46-34" edge="1">
          <mxGeometry relative="1" as="geometry" />
        </mxCell>
        <mxCell id="a8ONa14zMbqqqfTtxne3-7" value="Không" style="edgeLabel;html=1;align=center;verticalAlign=middle;resizable=0;points=[];" parent="a8ONa14zMbqqqfTtxne3-6" vertex="1" connectable="0">
          <mxGeometry x="-0.8087" y="1" relative="1" as="geometry">
            <mxPoint x="1" y="-14" as="offset" />
          </mxGeometry>
        </mxCell>
        <mxCell id="jgc4jYTmu2P3NCcS7r46-4" value="Số TK hợp lệ?" style="rhombus;strokeWidth=2;whiteSpace=wrap;" parent="1" vertex="1">
          <mxGeometry x="199.5" y="350" width="147" height="147" as="geometry" />
        </mxCell>
        <mxCell id="a8ONa14zMbqqqfTtxne3-12" style="edgeStyle=orthogonalEdgeStyle;rounded=0;orthogonalLoop=1;jettySize=auto;html=1;exitX=0;exitY=0.5;exitDx=0;exitDy=0;entryX=0.5;entryY=0;entryDx=0;entryDy=0;" parent="1" source="jgc4jYTmu2P3NCcS7r46-7" target="jgc4jYTmu2P3NCcS7r46-36" edge="1">
          <mxGeometry relative="1" as="geometry" />
        </mxCell>
        <mxCell id="a8ONa14zMbqqqfTtxne3-13" value="Không" style="edgeLabel;html=1;align=center;verticalAlign=middle;resizable=0;points=[];" parent="a8ONa14zMbqqqfTtxne3-12" vertex="1" connectable="0">
          <mxGeometry x="-0.8544" y="-3" relative="1" as="geometry">
            <mxPoint x="-16" y="3" as="offset" />
          </mxGeometry>
        </mxCell>
        <mxCell id="jgc4jYTmu2P3NCcS7r46-7" value="PIN hợp lệ?" style="rhombus;strokeWidth=2;whiteSpace=wrap;" parent="1" vertex="1">
          <mxGeometry x="353.5" y="660" width="130" height="130" as="geometry" />
        </mxCell>
        <mxCell id="a8ONa14zMbqqqfTtxne3-17" style="edgeStyle=orthogonalEdgeStyle;rounded=0;orthogonalLoop=1;jettySize=auto;html=1;exitX=0;exitY=0.5;exitDx=0;exitDy=0;" parent="1" source="jgc4jYTmu2P3NCcS7r46-10" target="jgc4jYTmu2P3NCcS7r46-38" edge="1">
          <mxGeometry relative="1" as="geometry" />
        </mxCell>
        <mxCell id="a8ONa14zMbqqqfTtxne3-18" value="Không" style="edgeLabel;html=1;align=center;verticalAlign=middle;resizable=0;points=[];" parent="a8ONa14zMbqqqfTtxne3-17" vertex="1" connectable="0">
          <mxGeometry x="-0.7407" y="-2" relative="1" as="geometry">
            <mxPoint y="2" as="offset" />
          </mxGeometry>
        </mxCell>
        <mxCell id="a8ONa14zMbqqqfTtxne3-19" style="edgeStyle=orthogonalEdgeStyle;rounded=0;orthogonalLoop=1;jettySize=auto;html=1;exitX=1;exitY=0.5;exitDx=0;exitDy=0;" parent="1" source="jgc4jYTmu2P3NCcS7r46-10" target="jgc4jYTmu2P3NCcS7r46-39" edge="1">
          <mxGeometry relative="1" as="geometry" />
        </mxCell>
        <mxCell id="a8ONa14zMbqqqfTtxne3-20" value="Có" style="edgeLabel;html=1;align=center;verticalAlign=middle;resizable=0;points=[];" parent="a8ONa14zMbqqqfTtxne3-19" vertex="1" connectable="0">
          <mxGeometry x="-0.8406" relative="1" as="geometry">
            <mxPoint x="-2" y="1" as="offset" />
          </mxGeometry>
        </mxCell>
        <mxCell id="jgc4jYTmu2P3NCcS7r46-10" value="Tài khoản tồn tại?" style="rhombus;strokeWidth=2;whiteSpace=wrap;" parent="1" vertex="1">
          <mxGeometry x="483.5" y="949" width="150.5" height="131" as="geometry" />
        </mxCell>
        <mxCell id="jgc4jYTmu2P3NCcS7r46-28" value="" style="curved=1;startArrow=none;endArrow=block;exitX=0.5;exitY=1;entryX=0.5;entryY=-0.01;rounded=0;exitDx=0;exitDy=0;" parent="1" source="jgc4jYTmu2P3NCcS7r46-39" edge="1">
          <mxGeometry relative="1" as="geometry">
            <Array as="points" />
            <mxPoint x="732.5" y="1236" as="sourcePoint" />
            <mxPoint x="733" y="1288" as="targetPoint" />
          </mxGeometry>
        </mxCell>
        <mxCell id="KfTgASS8gKuy6PF88Rug-1" value="" style="edgeStyle=orthogonalEdgeStyle;rounded=0;orthogonalLoop=1;jettySize=auto;html=1;" parent="1" source="jgc4jYTmu2P3NCcS7r46-31" target="jgc4jYTmu2P3NCcS7r46-32" edge="1">
          <mxGeometry relative="1" as="geometry" />
        </mxCell>
        <mxCell id="jgc4jYTmu2P3NCcS7r46-31" value="Bắt đầu" style="ellipse;whiteSpace=wrap;html=1;" parent="1" vertex="1">
          <mxGeometry x="218" y="20" width="110" height="70" as="geometry" />
        </mxCell>
        <mxCell id="a8ONa14zMbqqqfTtxne3-1" value="" style="edgeStyle=orthogonalEdgeStyle;rounded=0;orthogonalLoop=1;jettySize=auto;html=1;" parent="1" source="jgc4jYTmu2P3NCcS7r46-32" target="jgc4jYTmu2P3NCcS7r46-33" edge="1">
          <mxGeometry relative="1" as="geometry" />
        </mxCell>
        <mxCell id="jgc4jYTmu2P3NCcS7r46-32" value="Hiển thị màn hình đăng nhập" style="shape=parallelogram;perimeter=parallelogramPerimeter;whiteSpace=wrap;html=1;fixedSize=1;" parent="1" vertex="1">
          <mxGeometry x="179" y="130" width="188" height="70" as="geometry" />
        </mxCell>
        <mxCell id="a8ONa14zMbqqqfTtxne3-3" value="" style="edgeStyle=orthogonalEdgeStyle;rounded=0;orthogonalLoop=1;jettySize=auto;html=1;" parent="1" source="jgc4jYTmu2P3NCcS7r46-33" target="jgc4jYTmu2P3NCcS7r46-4" edge="1">
          <mxGeometry relative="1" as="geometry" />
        </mxCell>
        <mxCell id="jgc4jYTmu2P3NCcS7r46-33" value="Nhập số tài khoản" style="shape=parallelogram;perimeter=parallelogramPerimeter;whiteSpace=wrap;html=1;fixedSize=1;" parent="1" vertex="1">
          <mxGeometry x="198" y="253" width="150" height="60" as="geometry" />
        </mxCell>
        <mxCell id="a8ONa14zMbqqqfTtxne3-8" style="edgeStyle=orthogonalEdgeStyle;rounded=0;orthogonalLoop=1;jettySize=auto;html=1;exitX=0;exitY=0.5;exitDx=0;exitDy=0;entryX=0;entryY=0.5;entryDx=0;entryDy=0;" parent="1" source="jgc4jYTmu2P3NCcS7r46-34" target="jgc4jYTmu2P3NCcS7r46-33" edge="1">
          <mxGeometry relative="1" as="geometry">
            <Array as="points">
              <mxPoint x="20" y="540" />
              <mxPoint x="20" y="283" />
            </Array>
          </mxGeometry>
        </mxCell>
        <mxCell id="jgc4jYTmu2P3NCcS7r46-34" value="Thông báo lỗi" style="shape=parallelogram;perimeter=parallelogramPerimeter;whiteSpace=wrap;html=1;fixedSize=1;" parent="1" vertex="1">
          <mxGeometry x="40" y="510" width="120" height="60" as="geometry" />
        </mxCell>
        <mxCell id="a8ONa14zMbqqqfTtxne3-9" value="" style="edgeStyle=orthogonalEdgeStyle;rounded=0;orthogonalLoop=1;jettySize=auto;html=1;" parent="1" source="jgc4jYTmu2P3NCcS7r46-35" target="jgc4jYTmu2P3NCcS7r46-7" edge="1">
          <mxGeometry relative="1" as="geometry" />
        </mxCell>
        <mxCell id="jgc4jYTmu2P3NCcS7r46-35" value="Nhập mã PIN" style="shape=parallelogram;perimeter=parallelogramPerimeter;whiteSpace=wrap;html=1;fixedSize=1;" parent="1" vertex="1">
          <mxGeometry x="358.5" y="520" width="120" height="60" as="geometry" />
        </mxCell>
        <mxCell id="a8ONa14zMbqqqfTtxne3-16" style="edgeStyle=orthogonalEdgeStyle;rounded=0;orthogonalLoop=1;jettySize=auto;html=1;exitX=0;exitY=0.5;exitDx=0;exitDy=0;entryX=0;entryY=0.5;entryDx=0;entryDy=0;" parent="1" source="jgc4jYTmu2P3NCcS7r46-36" target="jgc4jYTmu2P3NCcS7r46-35" edge="1">
          <mxGeometry relative="1" as="geometry">
            <Array as="points">
              <mxPoint x="213" y="865" />
              <mxPoint x="213" y="550" />
            </Array>
          </mxGeometry>
        </mxCell>
        <mxCell id="jgc4jYTmu2P3NCcS7r46-36" value="Thông báo lỗi" style="shape=parallelogram;perimeter=parallelogramPerimeter;whiteSpace=wrap;html=1;fixedSize=1;" parent="1" vertex="1">
          <mxGeometry x="218" y="835" width="120" height="60" as="geometry" />
        </mxCell>
        <mxCell id="a8ONa14zMbqqqfTtxne3-15" value="" style="edgeStyle=orthogonalEdgeStyle;rounded=0;orthogonalLoop=1;jettySize=auto;html=1;" parent="1" source="jgc4jYTmu2P3NCcS7r46-37" target="jgc4jYTmu2P3NCcS7r46-10" edge="1">
          <mxGeometry relative="1" as="geometry" />
        </mxCell>
        <mxCell id="jgc4jYTmu2P3NCcS7r46-37" value="Tải thông tin tài khoản" style="shape=parallelogram;perimeter=parallelogramPerimeter;whiteSpace=wrap;html=1;fixedSize=1;" parent="1" vertex="1">
          <mxGeometry x="483.5" y="820" width="150" height="60" as="geometry" />
        </mxCell>
        <mxCell id="jgc4jYTmu2P3NCcS7r46-38" value="Thông báo lỗi" style="shape=parallelogram;perimeter=parallelogramPerimeter;whiteSpace=wrap;html=1;fixedSize=1;" parent="1" vertex="1">
          <mxGeometry x="346.5" y="1180" width="150" height="58" as="geometry" />
        </mxCell>
        <mxCell id="jgc4jYTmu2P3NCcS7r46-39" value="Đăng nhập thành công" style="shape=parallelogram;perimeter=parallelogramPerimeter;whiteSpace=wrap;html=1;fixedSize=1;" parent="1" vertex="1">
          <mxGeometry x="653" y="1179" width="160" height="60" as="geometry" />
        </mxCell>
        <mxCell id="jgc4jYTmu2P3NCcS7r46-40" value="Kết thúc" style="ellipse;whiteSpace=wrap;html=1;" parent="1" vertex="1">
          <mxGeometry x="683" y="1290" width="100" height="60" as="geometry" />
        </mxCell>
        <mxCell id="a8ONa14zMbqqqfTtxne3-10" style="edgeStyle=orthogonalEdgeStyle;rounded=0;orthogonalLoop=1;jettySize=auto;html=1;exitX=1;exitY=0.5;exitDx=0;exitDy=0;entryX=0.597;entryY=0.033;entryDx=0;entryDy=0;entryPerimeter=0;" parent="1" source="jgc4jYTmu2P3NCcS7r46-7" target="jgc4jYTmu2P3NCcS7r46-37" edge="1">
          <mxGeometry relative="1" as="geometry" />
        </mxCell>
        <mxCell id="a8ONa14zMbqqqfTtxne3-11" value="Có" style="edgeLabel;html=1;align=center;verticalAlign=middle;resizable=0;points=[];" parent="a8ONa14zMbqqqfTtxne3-10" vertex="1" connectable="0">
          <mxGeometry x="-0.866" y="-1" relative="1" as="geometry">
            <mxPoint x="7" y="-6" as="offset" />
          </mxGeometry>
        </mxCell>
      </root>
    </mxGraphModel>
  </diagram>
  <diagram id="rekXLSSDZuETXn3BsQgK" name="Withdraw">
    <mxGraphModel dx="1050" dy="669" grid="1" gridSize="10" guides="1" tooltips="1" connect="1" arrows="1" fold="1" page="1" pageScale="1" pageWidth="850" pageHeight="1100" math="0" shadow="0">
      <root>
        <mxCell id="0" />
        <mxCell id="1" parent="0" />
        <mxCell id="6qlWv5AnT97fPOmtZelR-8" style="edgeStyle=orthogonalEdgeStyle;rounded=0;orthogonalLoop=1;jettySize=auto;html=1;exitX=1;exitY=0.5;exitDx=0;exitDy=0;entryX=0.5;entryY=0;entryDx=0;entryDy=0;" edge="1" parent="1" source="mQijPMUmBpx-nMN256m8-4" target="mQijPMUmBpx-nMN256m8-6">
          <mxGeometry relative="1" as="geometry" />
        </mxCell>
        <mxCell id="6qlWv5AnT97fPOmtZelR-9" value="Có" style="edgeLabel;html=1;align=center;verticalAlign=middle;resizable=0;points=[];" vertex="1" connectable="0" parent="6qlWv5AnT97fPOmtZelR-8">
          <mxGeometry x="-0.7632" y="-1" relative="1" as="geometry">
            <mxPoint as="offset" />
          </mxGeometry>
        </mxCell>
        <mxCell id="mQijPMUmBpx-nMN256m8-4" value="Lựa chọn hợp lệ?" style="rhombus;strokeWidth=2;whiteSpace=wrap;" parent="1" vertex="1">
          <mxGeometry x="133.5" y="315" width="173" height="173" as="geometry" />
        </mxCell>
        <mxCell id="6qlWv5AnT97fPOmtZelR-13" style="edgeStyle=orthogonalEdgeStyle;rounded=0;orthogonalLoop=1;jettySize=auto;html=1;exitX=1;exitY=0.5;exitDx=0;exitDy=0;entryX=0.5;entryY=0;entryDx=0;entryDy=0;" edge="1" parent="1" source="mQijPMUmBpx-nMN256m8-6" target="mQijPMUmBpx-nMN256m8-45">
          <mxGeometry relative="1" as="geometry" />
        </mxCell>
        <mxCell id="6qlWv5AnT97fPOmtZelR-14" value="Không" style="edgeLabel;html=1;align=center;verticalAlign=middle;resizable=0;points=[];" vertex="1" connectable="0" parent="6qlWv5AnT97fPOmtZelR-13">
          <mxGeometry x="-0.8772" relative="1" as="geometry">
            <mxPoint x="7" as="offset" />
          </mxGeometry>
        </mxCell>
        <mxCell id="mQijPMUmBpx-nMN256m8-6" value="Số tiền tùy chọn?" style="rhombus;strokeWidth=2;whiteSpace=wrap;" parent="1" vertex="1">
          <mxGeometry x="296.5" y="550" width="174" height="174" as="geometry" />
        </mxCell>
        <mxCell id="6qlWv5AnT97fPOmtZelR-18" style="edgeStyle=orthogonalEdgeStyle;rounded=0;orthogonalLoop=1;jettySize=auto;html=1;exitX=0;exitY=0.5;exitDx=0;exitDy=0;" edge="1" parent="1" source="mQijPMUmBpx-nMN256m8-9" target="mQijPMUmBpx-nMN256m8-46">
          <mxGeometry relative="1" as="geometry" />
        </mxCell>
        <mxCell id="6qlWv5AnT97fPOmtZelR-19" value="Không" style="edgeLabel;html=1;align=center;verticalAlign=middle;resizable=0;points=[];" vertex="1" connectable="0" parent="6qlWv5AnT97fPOmtZelR-18">
          <mxGeometry x="-0.7247" y="-1" relative="1" as="geometry">
            <mxPoint as="offset" />
          </mxGeometry>
        </mxCell>
        <mxCell id="mQijPMUmBpx-nMN256m8-9" value="Số tiền hợp lệ?" style="rhombus;strokeWidth=2;whiteSpace=wrap;" parent="1" vertex="1">
          <mxGeometry x="305" y="920" width="157" height="157" as="geometry" />
        </mxCell>
        <mxCell id="6qlWv5AnT97fPOmtZelR-22" style="edgeStyle=orthogonalEdgeStyle;rounded=0;orthogonalLoop=1;jettySize=auto;html=1;exitX=0;exitY=0.5;exitDx=0;exitDy=0;" edge="1" parent="1" source="mQijPMUmBpx-nMN256m8-13" target="mQijPMUmBpx-nMN256m8-49">
          <mxGeometry relative="1" as="geometry" />
        </mxCell>
        <mxCell id="6qlWv5AnT97fPOmtZelR-23" value="Có" style="edgeLabel;html=1;align=center;verticalAlign=middle;resizable=0;points=[];" vertex="1" connectable="0" parent="6qlWv5AnT97fPOmtZelR-22">
          <mxGeometry x="-0.6857" y="1" relative="1" as="geometry">
            <mxPoint as="offset" />
          </mxGeometry>
        </mxCell>
        <mxCell id="6qlWv5AnT97fPOmtZelR-24" style="edgeStyle=orthogonalEdgeStyle;rounded=0;orthogonalLoop=1;jettySize=auto;html=1;exitX=1;exitY=0.5;exitDx=0;exitDy=0;" edge="1" parent="1" source="mQijPMUmBpx-nMN256m8-13" target="mQijPMUmBpx-nMN256m8-50">
          <mxGeometry relative="1" as="geometry" />
        </mxCell>
        <mxCell id="6qlWv5AnT97fPOmtZelR-25" value="Không" style="edgeLabel;html=1;align=center;verticalAlign=middle;resizable=0;points=[];" vertex="1" connectable="0" parent="6qlWv5AnT97fPOmtZelR-24">
          <mxGeometry x="-0.7932" relative="1" as="geometry">
            <mxPoint as="offset" />
          </mxGeometry>
        </mxCell>
        <mxCell id="mQijPMUmBpx-nMN256m8-13" value="In biên lai?" style="rhombus;strokeWidth=2;whiteSpace=wrap;" parent="1" vertex="1">
          <mxGeometry x="457" y="1370" width="126" height="126" as="geometry" />
        </mxCell>
        <mxCell id="6qlWv5AnT97fPOmtZelR-29" style="edgeStyle=orthogonalEdgeStyle;rounded=0;orthogonalLoop=1;jettySize=auto;html=1;exitX=1;exitY=0.5;exitDx=0;exitDy=0;entryX=1;entryY=0.5;entryDx=0;entryDy=0;" edge="1" parent="1" source="mQijPMUmBpx-nMN256m8-16" target="mQijPMUmBpx-nMN256m8-40">
          <mxGeometry relative="1" as="geometry">
            <Array as="points">
              <mxPoint x="760" y="1738" />
              <mxPoint x="760" y="155" />
            </Array>
          </mxGeometry>
        </mxCell>
        <mxCell id="mQijPMUmBpx-nMN256m8-16" value="Tiếp tục?" style="rhombus;strokeWidth=2;whiteSpace=wrap;" parent="1" vertex="1">
          <mxGeometry x="462" y="1680" width="116" height="116" as="geometry" />
        </mxCell>
        <mxCell id="mQijPMUmBpx-nMN256m8-18" value="" style="curved=1;startArrow=none;endArrow=block;exitX=0.5;exitY=1;entryX=0.5;entryY=0;rounded=0;exitDx=0;exitDy=0;entryDx=0;entryDy=0;" parent="1" source="mQijPMUmBpx-nMN256m8-39" target="mQijPMUmBpx-nMN256m8-40" edge="1">
          <mxGeometry relative="1" as="geometry">
            <Array as="points" />
            <mxPoint x="436.5" y="68" as="sourcePoint" />
            <mxPoint x="437" y="118" as="targetPoint" />
          </mxGeometry>
        </mxCell>
        <mxCell id="mQijPMUmBpx-nMN256m8-31" value="" style="curved=1;startArrow=none;endArrow=block;exitX=0.5;exitY=1;entryX=0.5;entryY=0;rounded=0;exitDx=0;exitDy=0;entryDx=0;entryDy=0;" parent="1" source="mQijPMUmBpx-nMN256m8-47" target="mQijPMUmBpx-nMN256m8-48" edge="1">
          <mxGeometry relative="1" as="geometry">
            <Array as="points" />
            <mxPoint x="759.5" y="1184" as="sourcePoint" />
            <mxPoint x="760" y="1235" as="targetPoint" />
          </mxGeometry>
        </mxCell>
        <mxCell id="mQijPMUmBpx-nMN256m8-32" value="" style="curved=1;startArrow=none;endArrow=block;exitX=0.5;exitY=1;entryX=0.5;entryY=0;rounded=0;exitDx=0;exitDy=0;" parent="1" source="mQijPMUmBpx-nMN256m8-48" target="mQijPMUmBpx-nMN256m8-13" edge="1">
          <mxGeometry relative="1" as="geometry">
            <Array as="points" />
            <mxPoint x="760" y="1283" as="sourcePoint" />
          </mxGeometry>
        </mxCell>
        <mxCell id="mQijPMUmBpx-nMN256m8-38" value="Không" style="curved=1;startArrow=none;endArrow=block;exitX=0.5;exitY=1;entryX=0.5;entryY=0;rounded=0;entryDx=0;entryDy=0;" parent="1" source="mQijPMUmBpx-nMN256m8-16" target="mQijPMUmBpx-nMN256m8-51" edge="1">
          <mxGeometry relative="1" as="geometry">
            <Array as="points" />
            <mxPoint x="871" y="1820" as="targetPoint" />
          </mxGeometry>
        </mxCell>
        <mxCell id="mQijPMUmBpx-nMN256m8-39" value="Bắt đầu" style="ellipse;whiteSpace=wrap;html=1;" parent="1" vertex="1">
          <mxGeometry x="382" width="110" height="70" as="geometry" />
        </mxCell>
        <mxCell id="mQijPMUmBpx-nMN256m8-40" value="Hiển thị menu rút tiền" style="shape=parallelogram;perimeter=parallelogramPerimeter;whiteSpace=wrap;html=1;fixedSize=1;" parent="1" vertex="1">
          <mxGeometry x="367" y="120" width="140" height="70" as="geometry" />
        </mxCell>
        <mxCell id="6qlWv5AnT97fPOmtZelR-1" value="" style="edgeStyle=orthogonalEdgeStyle;rounded=0;orthogonalLoop=1;jettySize=auto;html=1;" edge="1" parent="1" source="mQijPMUmBpx-nMN256m8-41" target="mQijPMUmBpx-nMN256m8-4">
          <mxGeometry relative="1" as="geometry" />
        </mxCell>
        <mxCell id="mQijPMUmBpx-nMN256m8-41" value="Nhập lựa chọn" style="shape=parallelogram;perimeter=parallelogramPerimeter;whiteSpace=wrap;html=1;fixedSize=1;" parent="1" vertex="1">
          <mxGeometry x="160" y="220" width="120" height="60" as="geometry" />
        </mxCell>
        <mxCell id="6qlWv5AnT97fPOmtZelR-7" style="edgeStyle=orthogonalEdgeStyle;rounded=0;orthogonalLoop=1;jettySize=auto;html=1;exitX=0;exitY=0.5;exitDx=0;exitDy=0;entryX=0;entryY=0;entryDx=0;entryDy=0;" edge="1" parent="1" source="mQijPMUmBpx-nMN256m8-43" target="mQijPMUmBpx-nMN256m8-40">
          <mxGeometry relative="1" as="geometry">
            <Array as="points">
              <mxPoint x="20" y="580" />
              <mxPoint x="20" y="129" />
            </Array>
          </mxGeometry>
        </mxCell>
        <mxCell id="mQijPMUmBpx-nMN256m8-43" value="Thông báo lỗi" style="shape=parallelogram;perimeter=parallelogramPerimeter;whiteSpace=wrap;html=1;fixedSize=1;" parent="1" vertex="1">
          <mxGeometry x="30" y="550" width="130" height="60" as="geometry" />
        </mxCell>
        <mxCell id="6qlWv5AnT97fPOmtZelR-15" style="edgeStyle=orthogonalEdgeStyle;rounded=0;orthogonalLoop=1;jettySize=auto;html=1;exitX=1;exitY=0.5;exitDx=0;exitDy=0;entryX=0.5;entryY=0;entryDx=0;entryDy=0;" edge="1" parent="1" source="mQijPMUmBpx-nMN256m8-44" target="mQijPMUmBpx-nMN256m8-9">
          <mxGeometry relative="1" as="geometry">
            <mxPoint x="310" y="788.5" as="sourcePoint" />
            <mxPoint x="383.5" y="920" as="targetPoint" />
            <Array as="points">
              <mxPoint x="297" y="840" />
              <mxPoint x="384" y="840" />
            </Array>
          </mxGeometry>
        </mxCell>
        <mxCell id="mQijPMUmBpx-nMN256m8-44" value="Nhập số tiền" style="shape=parallelogram;perimeter=parallelogramPerimeter;whiteSpace=wrap;html=1;fixedSize=1;" parent="1" vertex="1">
          <mxGeometry x="156.5" y="807" width="150" height="60" as="geometry" />
        </mxCell>
        <mxCell id="6qlWv5AnT97fPOmtZelR-17" style="edgeStyle=orthogonalEdgeStyle;rounded=0;orthogonalLoop=1;jettySize=auto;html=1;exitX=0;exitY=0.5;exitDx=0;exitDy=0;entryX=0.5;entryY=0;entryDx=0;entryDy=0;" edge="1" parent="1" source="mQijPMUmBpx-nMN256m8-45" target="mQijPMUmBpx-nMN256m8-9">
          <mxGeometry relative="1" as="geometry">
            <Array as="points">
              <mxPoint x="450" y="840" />
              <mxPoint x="384" y="840" />
            </Array>
          </mxGeometry>
        </mxCell>
        <mxCell id="mQijPMUmBpx-nMN256m8-45" value="Lấy số tiền định sẵn" style="shape=parallelogram;perimeter=parallelogramPerimeter;whiteSpace=wrap;html=1;fixedSize=1;" parent="1" vertex="1">
          <mxGeometry x="440" y="807" width="160" height="60" as="geometry" />
        </mxCell>
        <mxCell id="mQijPMUmBpx-nMN256m8-46" value="Thông báo lỗi" style="shape=parallelogram;perimeter=parallelogramPerimeter;whiteSpace=wrap;html=1;fixedSize=1;" parent="1" vertex="1">
          <mxGeometry x="170" y="1150" width="140" height="60" as="geometry" />
        </mxCell>
        <mxCell id="mQijPMUmBpx-nMN256m8-47" value="Cập nhật số dư" style="shape=parallelogram;perimeter=parallelogramPerimeter;whiteSpace=wrap;html=1;fixedSize=1;" parent="1" vertex="1">
          <mxGeometry x="455" y="1150" width="130" height="60" as="geometry" />
        </mxCell>
        <mxCell id="mQijPMUmBpx-nMN256m8-48" value="Ghi nhận giao dịch" style="shape=parallelogram;perimeter=parallelogramPerimeter;whiteSpace=wrap;html=1;fixedSize=1;" parent="1" vertex="1">
          <mxGeometry x="450" y="1260" width="140" height="60" as="geometry" />
        </mxCell>
        <mxCell id="6qlWv5AnT97fPOmtZelR-26" style="edgeStyle=orthogonalEdgeStyle;rounded=0;orthogonalLoop=1;jettySize=auto;html=1;exitX=1;exitY=0.5;exitDx=0;exitDy=0;entryX=0.5;entryY=0;entryDx=0;entryDy=0;" edge="1" parent="1" source="mQijPMUmBpx-nMN256m8-49" target="mQijPMUmBpx-nMN256m8-16">
          <mxGeometry relative="1" as="geometry">
            <Array as="points">
              <mxPoint x="520" y="1590" />
            </Array>
          </mxGeometry>
        </mxCell>
        <mxCell id="mQijPMUmBpx-nMN256m8-49" value="In biên lai" style="shape=parallelogram;perimeter=parallelogramPerimeter;whiteSpace=wrap;html=1;fixedSize=1;" parent="1" vertex="1">
          <mxGeometry x="342" y="1560" width="120" height="60" as="geometry" />
        </mxCell>
        <mxCell id="6qlWv5AnT97fPOmtZelR-27" style="edgeStyle=orthogonalEdgeStyle;rounded=0;orthogonalLoop=1;jettySize=auto;html=1;exitX=0;exitY=0.5;exitDx=0;exitDy=0;entryX=0.5;entryY=0;entryDx=0;entryDy=0;" edge="1" parent="1" source="mQijPMUmBpx-nMN256m8-50" target="mQijPMUmBpx-nMN256m8-16">
          <mxGeometry relative="1" as="geometry" />
        </mxCell>
        <mxCell id="mQijPMUmBpx-nMN256m8-50" value="Thông báo thành công" style="shape=parallelogram;perimeter=parallelogramPerimeter;whiteSpace=wrap;html=1;fixedSize=1;" parent="1" vertex="1">
          <mxGeometry x="583" y="1560" width="160" height="60" as="geometry" />
        </mxCell>
        <mxCell id="mQijPMUmBpx-nMN256m8-51" value="Kết thúc" style="ellipse;whiteSpace=wrap;html=1;" parent="1" vertex="1">
          <mxGeometry x="465" y="1850" width="110" height="60" as="geometry" />
        </mxCell>
        <mxCell id="6qlWv5AnT97fPOmtZelR-2" style="edgeStyle=orthogonalEdgeStyle;rounded=0;orthogonalLoop=1;jettySize=auto;html=1;exitX=0;exitY=0.25;exitDx=0;exitDy=0;entryX=0.563;entryY=-0.04;entryDx=0;entryDy=0;entryPerimeter=0;" edge="1" parent="1" source="mQijPMUmBpx-nMN256m8-40" target="mQijPMUmBpx-nMN256m8-41">
          <mxGeometry relative="1" as="geometry">
            <Array as="points">
              <mxPoint x="381" y="150" />
              <mxPoint x="228" y="150" />
            </Array>
          </mxGeometry>
        </mxCell>
        <mxCell id="6qlWv5AnT97fPOmtZelR-3" style="edgeStyle=orthogonalEdgeStyle;rounded=0;orthogonalLoop=1;jettySize=auto;html=1;exitX=0;exitY=0.5;exitDx=0;exitDy=0;entryX=0.422;entryY=0.06;entryDx=0;entryDy=0;entryPerimeter=0;" edge="1" parent="1" source="mQijPMUmBpx-nMN256m8-4" target="mQijPMUmBpx-nMN256m8-43">
          <mxGeometry relative="1" as="geometry" />
        </mxCell>
        <mxCell id="6qlWv5AnT97fPOmtZelR-4" value="Không" style="edgeLabel;html=1;align=center;verticalAlign=middle;resizable=0;points=[];" vertex="1" connectable="0" parent="6qlWv5AnT97fPOmtZelR-3">
          <mxGeometry x="-0.7314" y="1" relative="1" as="geometry">
            <mxPoint x="4" y="-1" as="offset" />
          </mxGeometry>
        </mxCell>
        <mxCell id="6qlWv5AnT97fPOmtZelR-11" style="edgeStyle=orthogonalEdgeStyle;rounded=0;orthogonalLoop=1;jettySize=auto;html=1;exitX=0;exitY=0.5;exitDx=0;exitDy=0;entryX=0.447;entryY=0.07;entryDx=0;entryDy=0;entryPerimeter=0;" edge="1" parent="1" source="mQijPMUmBpx-nMN256m8-6" target="mQijPMUmBpx-nMN256m8-44">
          <mxGeometry relative="1" as="geometry" />
        </mxCell>
        <mxCell id="6qlWv5AnT97fPOmtZelR-12" value="Có" style="edgeLabel;html=1;align=center;verticalAlign=middle;resizable=0;points=[];" vertex="1" connectable="0" parent="6qlWv5AnT97fPOmtZelR-11">
          <mxGeometry x="-0.7467" y="-3" relative="1" as="geometry">
            <mxPoint as="offset" />
          </mxGeometry>
        </mxCell>
        <mxCell id="6qlWv5AnT97fPOmtZelR-20" style="edgeStyle=orthogonalEdgeStyle;rounded=0;orthogonalLoop=1;jettySize=auto;html=1;exitX=1;exitY=0.5;exitDx=0;exitDy=0;entryX=0.575;entryY=0.02;entryDx=0;entryDy=0;entryPerimeter=0;" edge="1" parent="1" source="mQijPMUmBpx-nMN256m8-9" target="mQijPMUmBpx-nMN256m8-47">
          <mxGeometry relative="1" as="geometry" />
        </mxCell>
        <mxCell id="6qlWv5AnT97fPOmtZelR-21" value="Có" style="edgeLabel;html=1;align=center;verticalAlign=middle;resizable=0;points=[];" vertex="1" connectable="0" parent="6qlWv5AnT97fPOmtZelR-20">
          <mxGeometry x="-0.8259" y="1" relative="1" as="geometry">
            <mxPoint as="offset" />
          </mxGeometry>
        </mxCell>
      </root>
    </mxGraphModel>
  </diagram>
  <diagram id="gBMKvK1UHA9F7W_QYnK5" name="Transfer">
    <mxGraphModel dx="1434" dy="884" grid="1" gridSize="10" guides="1" tooltips="1" connect="1" arrows="1" fold="1" page="1" pageScale="1" pageWidth="850" pageHeight="1100" math="0" shadow="0">
      <root>
        <mxCell id="0" />
        <mxCell id="1" parent="0" />
        <mxCell id="2TvKB6s52RPc9AQV_psY-2" style="edgeStyle=orthogonalEdgeStyle;rounded=0;orthogonalLoop=1;jettySize=auto;html=1;exitX=0;exitY=0.5;exitDx=0;exitDy=0;entryX=0.5;entryY=0;entryDx=0;entryDy=0;" parent="1" source="zhKxXzOR4YV8gEPz8xWE-3" target="zhKxXzOR4YV8gEPz8xWE-37" edge="1">
          <mxGeometry relative="1" as="geometry" />
        </mxCell>
        <mxCell id="2TvKB6s52RPc9AQV_psY-3" value="Không" style="edgeLabel;html=1;align=center;verticalAlign=middle;resizable=0;points=[];" parent="2TvKB6s52RPc9AQV_psY-2" vertex="1" connectable="0">
          <mxGeometry x="-0.7494" y="-3" relative="1" as="geometry">
            <mxPoint x="-9" y="3" as="offset" />
          </mxGeometry>
        </mxCell>
        <mxCell id="zhKxXzOR4YV8gEPz8xWE-3" value="TK tồn tại?" style="rhombus;strokeWidth=2;whiteSpace=wrap;" parent="1" vertex="1">
          <mxGeometry x="190" y="230" width="129" height="129" as="geometry" />
        </mxCell>
        <mxCell id="2TvKB6s52RPc9AQV_psY-7" style="edgeStyle=orthogonalEdgeStyle;rounded=0;orthogonalLoop=1;jettySize=auto;html=1;exitX=0;exitY=0.5;exitDx=0;exitDy=0;entryX=0.5;entryY=0;entryDx=0;entryDy=0;" parent="1" source="zhKxXzOR4YV8gEPz8xWE-7" target="zhKxXzOR4YV8gEPz8xWE-42" edge="1">
          <mxGeometry relative="1" as="geometry" />
        </mxCell>
        <mxCell id="2TvKB6s52RPc9AQV_psY-8" value="Không" style="edgeLabel;html=1;align=center;verticalAlign=middle;resizable=0;points=[];" parent="2TvKB6s52RPc9AQV_psY-7" vertex="1" connectable="0">
          <mxGeometry x="-0.8143" y="1" relative="1" as="geometry">
            <mxPoint x="1" as="offset" />
          </mxGeometry>
        </mxCell>
        <mxCell id="2TvKB6s52RPc9AQV_psY-10" style="edgeStyle=orthogonalEdgeStyle;rounded=0;orthogonalLoop=1;jettySize=auto;html=1;exitX=1;exitY=0.5;exitDx=0;exitDy=0;entryX=0.5;entryY=0;entryDx=0;entryDy=0;" parent="1" source="zhKxXzOR4YV8gEPz8xWE-7" target="zhKxXzOR4YV8gEPz8xWE-43" edge="1">
          <mxGeometry relative="1" as="geometry" />
        </mxCell>
        <mxCell id="2TvKB6s52RPc9AQV_psY-11" value="Có" style="edgeLabel;html=1;align=center;verticalAlign=middle;resizable=0;points=[];" parent="2TvKB6s52RPc9AQV_psY-10" vertex="1" connectable="0">
          <mxGeometry x="-0.809" y="2" relative="1" as="geometry">
            <mxPoint as="offset" />
          </mxGeometry>
        </mxCell>
        <mxCell id="zhKxXzOR4YV8gEPz8xWE-7" value="Số tiền hợp lệ?" style="rhombus;strokeWidth=2;whiteSpace=wrap;" parent="1" vertex="1">
          <mxGeometry x="291.5" y="530" width="157" height="157" as="geometry" />
        </mxCell>
        <mxCell id="2TvKB6s52RPc9AQV_psY-12" style="edgeStyle=orthogonalEdgeStyle;rounded=0;orthogonalLoop=1;jettySize=auto;html=1;exitX=0;exitY=0.5;exitDx=0;exitDy=0;" parent="1" source="zhKxXzOR4YV8gEPz8xWE-12" target="zhKxXzOR4YV8gEPz8xWE-46" edge="1">
          <mxGeometry relative="1" as="geometry" />
        </mxCell>
        <mxCell id="2TvKB6s52RPc9AQV_psY-13" value="Có" style="edgeLabel;html=1;align=center;verticalAlign=middle;resizable=0;points=[];" parent="2TvKB6s52RPc9AQV_psY-12" vertex="1" connectable="0">
          <mxGeometry x="-0.715" y="-1" relative="1" as="geometry">
            <mxPoint as="offset" />
          </mxGeometry>
        </mxCell>
        <mxCell id="zhKxXzOR4YV8gEPz8xWE-12" value="In biên lai?" style="rhombus;strokeWidth=2;whiteSpace=wrap;" parent="1" vertex="1">
          <mxGeometry x="456.5" y="1078" width="126" height="126" as="geometry" />
        </mxCell>
        <mxCell id="2TvKB6s52RPc9AQV_psY-18" style="edgeStyle=orthogonalEdgeStyle;rounded=0;orthogonalLoop=1;jettySize=auto;html=1;exitX=1;exitY=0.5;exitDx=0;exitDy=0;entryX=1;entryY=0.5;entryDx=0;entryDy=0;" parent="1" source="zhKxXzOR4YV8gEPz8xWE-15" target="zhKxXzOR4YV8gEPz8xWE-36" edge="1">
          <mxGeometry relative="1" as="geometry">
            <Array as="points">
              <mxPoint x="740" y="1422" />
              <mxPoint x="740" y="150" />
            </Array>
          </mxGeometry>
        </mxCell>
        <mxCell id="i75hxhHWBZqNK8Sq8N9E-1" value="Có" style="edgeLabel;html=1;align=center;verticalAlign=middle;resizable=0;points=[];" vertex="1" connectable="0" parent="2TvKB6s52RPc9AQV_psY-18">
          <mxGeometry x="-0.9344" relative="1" as="geometry">
            <mxPoint as="offset" />
          </mxGeometry>
        </mxCell>
        <mxCell id="i75hxhHWBZqNK8Sq8N9E-2" style="edgeStyle=orthogonalEdgeStyle;rounded=0;orthogonalLoop=1;jettySize=auto;html=1;exitX=0;exitY=0.5;exitDx=0;exitDy=0;" edge="1" parent="1" source="zhKxXzOR4YV8gEPz8xWE-15" target="zhKxXzOR4YV8gEPz8xWE-48">
          <mxGeometry relative="1" as="geometry" />
        </mxCell>
        <mxCell id="i75hxhHWBZqNK8Sq8N9E-3" value="Không" style="edgeLabel;html=1;align=center;verticalAlign=middle;resizable=0;points=[];" vertex="1" connectable="0" parent="i75hxhHWBZqNK8Sq8N9E-2">
          <mxGeometry x="0.0865" y="-3" relative="1" as="geometry">
            <mxPoint y="1" as="offset" />
          </mxGeometry>
        </mxCell>
        <mxCell id="zhKxXzOR4YV8gEPz8xWE-15" value="Tiếp tục?" style="rhombus;strokeWidth=2;whiteSpace=wrap;" parent="1" vertex="1">
          <mxGeometry x="461.5" y="1364" width="116" height="116" as="geometry" />
        </mxCell>
        <mxCell id="zhKxXzOR4YV8gEPz8xWE-17" value="" style="curved=1;startArrow=none;endArrow=block;exitX=0.5;exitY=1;entryX=0.5;entryY=0;rounded=0;exitDx=0;exitDy=0;exitPerimeter=0;entryDx=0;entryDy=0;" parent="1" source="zhKxXzOR4YV8gEPz8xWE-35" target="zhKxXzOR4YV8gEPz8xWE-36" edge="1">
          <mxGeometry relative="1" as="geometry">
            <Array as="points" />
            <mxPoint x="442.4999999999998" y="67.99999999999989" as="sourcePoint" />
            <mxPoint x="441.9999999999998" y="118" as="targetPoint" />
          </mxGeometry>
        </mxCell>
        <mxCell id="zhKxXzOR4YV8gEPz8xWE-20" value="" style="curved=1;startArrow=none;endArrow=block;exitX=0.5;exitY=1;entryX=0.5;entryY=0;rounded=0;exitDx=0;exitDy=0;entryDx=0;entryDy=0;" parent="1" source="zhKxXzOR4YV8gEPz8xWE-37" target="zhKxXzOR4YV8gEPz8xWE-38" edge="1">
          <mxGeometry relative="1" as="geometry">
            <Array as="points" />
            <mxPoint x="98.5" y="468" as="sourcePoint" />
            <mxPoint x="97.7800000000002" y="550" as="targetPoint" />
          </mxGeometry>
        </mxCell>
        <mxCell id="zhKxXzOR4YV8gEPz8xWE-26" value="" style="curved=1;startArrow=none;endArrow=block;exitX=0.5;exitY=1;entryX=0.5;entryY=0;rounded=0;exitDx=0;exitDy=0;entryDx=0;entryDy=0;" parent="1" source="zhKxXzOR4YV8gEPz8xWE-43" target="zhKxXzOR4YV8gEPz8xWE-44" edge="1">
          <mxGeometry relative="1" as="geometry">
            <Array as="points" />
            <mxPoint x="519.5" y="807.9999999999998" as="sourcePoint" />
            <mxPoint x="519.9999999999998" y="882" as="targetPoint" />
          </mxGeometry>
        </mxCell>
        <mxCell id="zhKxXzOR4YV8gEPz8xWE-27" value="" style="curved=1;startArrow=none;endArrow=block;exitX=0.5;exitY=1;entryX=0.5;entryY=0;rounded=0;exitDx=0;exitDy=0;entryDx=0;entryDy=0;" parent="1" source="zhKxXzOR4YV8gEPz8xWE-44" target="zhKxXzOR4YV8gEPz8xWE-45" edge="1">
          <mxGeometry relative="1" as="geometry">
            <Array as="points" />
            <mxPoint x="519.9999999999998" y="930" as="sourcePoint" />
            <mxPoint x="519.5" y="980" as="targetPoint" />
          </mxGeometry>
        </mxCell>
        <mxCell id="zhKxXzOR4YV8gEPz8xWE-28" value="" style="curved=1;startArrow=none;endArrow=block;exitX=0.5;exitY=1;entryX=0.5;entryY=0;rounded=0;exitDx=0;exitDy=0;" parent="1" source="zhKxXzOR4YV8gEPz8xWE-45" target="zhKxXzOR4YV8gEPz8xWE-12" edge="1">
          <mxGeometry relative="1" as="geometry">
            <Array as="points" />
            <mxPoint x="519.5" y="1028" as="sourcePoint" />
          </mxGeometry>
        </mxCell>
        <mxCell id="zhKxXzOR4YV8gEPz8xWE-35" value="Bắt đầu" style="ellipse;whiteSpace=wrap;html=1;" parent="1" vertex="1">
          <mxGeometry x="377" y="10" width="130" height="60" as="geometry" />
        </mxCell>
        <mxCell id="2TvKB6s52RPc9AQV_psY-1" style="edgeStyle=orthogonalEdgeStyle;rounded=0;orthogonalLoop=1;jettySize=auto;html=1;exitX=0;exitY=0.5;exitDx=0;exitDy=0;entryX=0.5;entryY=0;entryDx=0;entryDy=0;" parent="1" source="zhKxXzOR4YV8gEPz8xWE-36" target="zhKxXzOR4YV8gEPz8xWE-3" edge="1">
          <mxGeometry relative="1" as="geometry" />
        </mxCell>
        <mxCell id="zhKxXzOR4YV8gEPz8xWE-36" value="Nhập số TK nhận" style="shape=parallelogram;perimeter=parallelogramPerimeter;whiteSpace=wrap;html=1;fixedSize=1;" parent="1" vertex="1">
          <mxGeometry x="362" y="120" width="160" height="60" as="geometry" />
        </mxCell>
        <mxCell id="zhKxXzOR4YV8gEPz8xWE-37" value="Thông báo lỗi" style="shape=parallelogram;perimeter=parallelogramPerimeter;whiteSpace=wrap;html=1;fixedSize=1;" parent="1" vertex="1">
          <mxGeometry x="29" y="419" width="140" height="60" as="geometry" />
        </mxCell>
        <mxCell id="zhKxXzOR4YV8gEPz8xWE-38" value="Kết thúc" style="ellipse;whiteSpace=wrap;html=1;" parent="1" vertex="1">
          <mxGeometry x="44" y="550" width="110" height="60" as="geometry" />
        </mxCell>
        <mxCell id="2TvKB6s52RPc9AQV_psY-6" style="edgeStyle=orthogonalEdgeStyle;rounded=0;orthogonalLoop=1;jettySize=auto;html=1;exitX=0.5;exitY=1;exitDx=0;exitDy=0;entryX=0.5;entryY=0;entryDx=0;entryDy=0;" parent="1" source="zhKxXzOR4YV8gEPz8xWE-39" target="zhKxXzOR4YV8gEPz8xWE-7" edge="1">
          <mxGeometry relative="1" as="geometry" />
        </mxCell>
        <mxCell id="zhKxXzOR4YV8gEPz8xWE-39" value="Nhập số tiền" style="shape=parallelogram;perimeter=parallelogramPerimeter;whiteSpace=wrap;html=1;fixedSize=1;" parent="1" vertex="1">
          <mxGeometry x="310" y="419" width="120" height="60" as="geometry" />
        </mxCell>
        <mxCell id="2TvKB6s52RPc9AQV_psY-9" style="edgeStyle=orthogonalEdgeStyle;rounded=0;orthogonalLoop=1;jettySize=auto;html=1;exitX=0;exitY=0.5;exitDx=0;exitDy=0;entryX=0;entryY=0.25;entryDx=0;entryDy=0;" parent="1" source="zhKxXzOR4YV8gEPz8xWE-42" target="zhKxXzOR4YV8gEPz8xWE-39" edge="1">
          <mxGeometry relative="1" as="geometry">
            <Array as="points">
              <mxPoint x="179" y="620" />
              <mxPoint x="180" y="620" />
              <mxPoint x="180" y="438" />
            </Array>
          </mxGeometry>
        </mxCell>
        <mxCell id="zhKxXzOR4YV8gEPz8xWE-42" value="Thông báo lỗi" style="shape=parallelogram;perimeter=parallelogramPerimeter;whiteSpace=wrap;html=1;fixedSize=1;" parent="1" vertex="1">
          <mxGeometry x="169" y="760" width="150" height="60" as="geometry" />
        </mxCell>
        <mxCell id="zhKxXzOR4YV8gEPz8xWE-43" value="Cập nhật số dư nguồn" style="shape=parallelogram;perimeter=parallelogramPerimeter;whiteSpace=wrap;html=1;fixedSize=1;" parent="1" vertex="1">
          <mxGeometry x="430" y="760" width="180" height="60" as="geometry" />
        </mxCell>
        <mxCell id="zhKxXzOR4YV8gEPz8xWE-44" value="Cập nhật số dư đích" style="shape=parallelogram;perimeter=parallelogramPerimeter;whiteSpace=wrap;html=1;fixedSize=1;" parent="1" vertex="1">
          <mxGeometry x="435" y="881" width="170" height="60" as="geometry" />
        </mxCell>
        <mxCell id="zhKxXzOR4YV8gEPz8xWE-45" value="Ghi nhận giao dịch" style="shape=parallelogram;perimeter=parallelogramPerimeter;whiteSpace=wrap;html=1;fixedSize=1;" parent="1" vertex="1">
          <mxGeometry x="450" y="981" width="140" height="60" as="geometry" />
        </mxCell>
        <mxCell id="2TvKB6s52RPc9AQV_psY-16" style="edgeStyle=orthogonalEdgeStyle;rounded=0;orthogonalLoop=1;jettySize=auto;html=1;exitX=1;exitY=0.5;exitDx=0;exitDy=0;entryX=0.5;entryY=0;entryDx=0;entryDy=0;" parent="1" source="zhKxXzOR4YV8gEPz8xWE-46" target="zhKxXzOR4YV8gEPz8xWE-15" edge="1">
          <mxGeometry relative="1" as="geometry">
            <Array as="points">
              <mxPoint x="520" y="1285" />
            </Array>
          </mxGeometry>
        </mxCell>
        <mxCell id="zhKxXzOR4YV8gEPz8xWE-46" value="In biên lai" style="shape=parallelogram;perimeter=parallelogramPerimeter;whiteSpace=wrap;html=1;fixedSize=1;" parent="1" vertex="1">
          <mxGeometry x="340" y="1260" width="130" height="50" as="geometry" />
        </mxCell>
        <mxCell id="2TvKB6s52RPc9AQV_psY-17" style="edgeStyle=orthogonalEdgeStyle;rounded=0;orthogonalLoop=1;jettySize=auto;html=1;exitX=0;exitY=0.5;exitDx=0;exitDy=0;entryX=0.5;entryY=0;entryDx=0;entryDy=0;" parent="1" source="zhKxXzOR4YV8gEPz8xWE-47" target="zhKxXzOR4YV8gEPz8xWE-15" edge="1">
          <mxGeometry relative="1" as="geometry">
            <Array as="points">
              <mxPoint x="520" y="1285" />
            </Array>
          </mxGeometry>
        </mxCell>
        <mxCell id="zhKxXzOR4YV8gEPz8xWE-47" value="Thông báo thành công,&lt;div&gt;số dư&lt;/div&gt;" style="shape=parallelogram;perimeter=parallelogramPerimeter;whiteSpace=wrap;html=1;fixedSize=1;" parent="1" vertex="1">
          <mxGeometry x="552.5" y="1257" width="160" height="56" as="geometry" />
        </mxCell>
        <mxCell id="zhKxXzOR4YV8gEPz8xWE-48" value="Kết thúc" style="ellipse;whiteSpace=wrap;html=1;" parent="1" vertex="1">
          <mxGeometry x="370" y="1530" width="110" height="60" as="geometry" />
        </mxCell>
        <mxCell id="2TvKB6s52RPc9AQV_psY-4" style="edgeStyle=orthogonalEdgeStyle;rounded=0;orthogonalLoop=1;jettySize=auto;html=1;exitX=1;exitY=0.5;exitDx=0;exitDy=0;entryX=0.566;entryY=0.057;entryDx=0;entryDy=0;entryPerimeter=0;" parent="1" source="zhKxXzOR4YV8gEPz8xWE-3" target="zhKxXzOR4YV8gEPz8xWE-39" edge="1">
          <mxGeometry relative="1" as="geometry" />
        </mxCell>
        <mxCell id="2TvKB6s52RPc9AQV_psY-5" value="Có" style="edgeLabel;html=1;align=center;verticalAlign=middle;resizable=0;points=[];" parent="2TvKB6s52RPc9AQV_psY-4" vertex="1" connectable="0">
          <mxGeometry x="-0.818" y="1" relative="1" as="geometry">
            <mxPoint as="offset" />
          </mxGeometry>
        </mxCell>
        <mxCell id="2TvKB6s52RPc9AQV_psY-14" style="edgeStyle=orthogonalEdgeStyle;rounded=0;orthogonalLoop=1;jettySize=auto;html=1;exitX=1;exitY=0.5;exitDx=0;exitDy=0;entryX=0.569;entryY=0.039;entryDx=0;entryDy=0;entryPerimeter=0;" parent="1" source="zhKxXzOR4YV8gEPz8xWE-12" target="zhKxXzOR4YV8gEPz8xWE-47" edge="1">
          <mxGeometry relative="1" as="geometry" />
        </mxCell>
        <mxCell id="2TvKB6s52RPc9AQV_psY-15" value="Không" style="edgeLabel;html=1;align=center;verticalAlign=middle;resizable=0;points=[];" parent="2TvKB6s52RPc9AQV_psY-14" vertex="1" connectable="0">
          <mxGeometry x="-0.7957" y="-2" relative="1" as="geometry">
            <mxPoint x="10" y="-2" as="offset" />
          </mxGeometry>
        </mxCell>
      </root>
    </mxGraphModel>
  </diagram>
  <diagram id="_h2yajGpTjyiC8IXJcYu" name="History">
    <mxGraphModel dx="1050" dy="669" grid="1" gridSize="10" guides="1" tooltips="1" connect="1" arrows="1" fold="1" page="1" pageScale="1" pageWidth="850" pageHeight="1100" math="0" shadow="0">
      <root>
        <mxCell id="0" />
        <mxCell id="1" parent="0" />
        <mxCell id="NBP3WBWZj9JStzIS8WCl-1" style="edgeStyle=orthogonalEdgeStyle;rounded=0;orthogonalLoop=1;jettySize=auto;html=1;exitX=0;exitY=0.5;exitDx=0;exitDy=0;entryX=0.5;entryY=0;entryDx=0;entryDy=0;" edge="1" parent="1" source="PjfytmTnMHUmzMikeKz2-3" target="PjfytmTnMHUmzMikeKz2-20">
          <mxGeometry relative="1" as="geometry" />
        </mxCell>
        <mxCell id="NBP3WBWZj9JStzIS8WCl-2" value="Có" style="edgeLabel;html=1;align=center;verticalAlign=middle;resizable=0;points=[];" vertex="1" connectable="0" parent="NBP3WBWZj9JStzIS8WCl-1">
          <mxGeometry x="-0.767" y="3" relative="1" as="geometry">
            <mxPoint y="-3" as="offset" />
          </mxGeometry>
        </mxCell>
        <mxCell id="NBP3WBWZj9JStzIS8WCl-9" style="edgeStyle=orthogonalEdgeStyle;rounded=0;orthogonalLoop=1;jettySize=auto;html=1;exitX=1;exitY=0.5;exitDx=0;exitDy=0;" edge="1" parent="1" source="PjfytmTnMHUmzMikeKz2-3" target="PjfytmTnMHUmzMikeKz2-22">
          <mxGeometry relative="1" as="geometry" />
        </mxCell>
        <mxCell id="NBP3WBWZj9JStzIS8WCl-10" value="Không" style="edgeLabel;html=1;align=center;verticalAlign=middle;resizable=0;points=[];" vertex="1" connectable="0" parent="NBP3WBWZj9JStzIS8WCl-9">
          <mxGeometry x="-0.9191" y="-2" relative="1" as="geometry">
            <mxPoint as="offset" />
          </mxGeometry>
        </mxCell>
        <mxCell id="PjfytmTnMHUmzMikeKz2-3" value="File tồn tại?" style="rhombus;strokeWidth=2;whiteSpace=wrap;" parent="1" vertex="1">
          <mxGeometry x="164" y="217" width="136" height="136" as="geometry" />
        </mxCell>
        <mxCell id="NBP3WBWZj9JStzIS8WCl-4" style="edgeStyle=orthogonalEdgeStyle;rounded=0;orthogonalLoop=1;jettySize=auto;html=1;exitX=1;exitY=0.5;exitDx=0;exitDy=0;entryX=1;entryY=0.5;entryDx=0;entryDy=0;" edge="1" parent="1" source="PjfytmTnMHUmzMikeKz2-7" target="PjfytmTnMHUmzMikeKz2-21">
          <mxGeometry relative="1" as="geometry">
            <Array as="points">
              <mxPoint x="210" y="725" />
              <mxPoint x="210" y="580" />
            </Array>
          </mxGeometry>
        </mxCell>
        <mxCell id="NBP3WBWZj9JStzIS8WCl-5" value="Có" style="edgeLabel;html=1;align=center;verticalAlign=middle;resizable=0;points=[];" vertex="1" connectable="0" parent="NBP3WBWZj9JStzIS8WCl-4">
          <mxGeometry x="0.235" y="1" relative="1" as="geometry">
            <mxPoint as="offset" />
          </mxGeometry>
        </mxCell>
        <mxCell id="NBP3WBWZj9JStzIS8WCl-6" style="edgeStyle=orthogonalEdgeStyle;rounded=0;orthogonalLoop=1;jettySize=auto;html=1;exitX=0.5;exitY=1;exitDx=0;exitDy=0;entryX=0;entryY=0.5;entryDx=0;entryDy=0;" edge="1" parent="1" source="PjfytmTnMHUmzMikeKz2-7" target="PjfytmTnMHUmzMikeKz2-23">
          <mxGeometry relative="1" as="geometry" />
        </mxCell>
        <mxCell id="NBP3WBWZj9JStzIS8WCl-7" value="Không" style="edgeLabel;html=1;align=center;verticalAlign=middle;resizable=0;points=[];" vertex="1" connectable="0" parent="NBP3WBWZj9JStzIS8WCl-6">
          <mxGeometry x="-0.5976" y="-2" relative="1" as="geometry">
            <mxPoint as="offset" />
          </mxGeometry>
        </mxCell>
        <mxCell id="PjfytmTnMHUmzMikeKz2-7" value="Tiếp tục?" style="rhombus;strokeWidth=2;whiteSpace=wrap;" parent="1" vertex="1">
          <mxGeometry x="57" y="667" width="116" height="116" as="geometry" />
        </mxCell>
        <mxCell id="PjfytmTnMHUmzMikeKz2-9" value="" style="curved=1;startArrow=none;endArrow=block;exitX=0.5;exitY=1;entryX=0.5;entryY=0;rounded=0;exitDx=0;exitDy=0;exitPerimeter=0;entryDx=0;entryDy=0;" parent="1" source="PjfytmTnMHUmzMikeKz2-18" target="PjfytmTnMHUmzMikeKz2-19" edge="1">
          <mxGeometry relative="1" as="geometry">
            <Array as="points" />
            <mxPoint x="231.5" y="68" as="sourcePoint" />
            <mxPoint x="232.5" y="118" as="targetPoint" />
          </mxGeometry>
        </mxCell>
        <mxCell id="PjfytmTnMHUmzMikeKz2-10" value="" style="curved=1;startArrow=none;endArrow=block;exitX=0.5;exitY=1;entryX=0.5;entryY=0;rounded=0;exitDx=0;exitDy=0;" parent="1" source="PjfytmTnMHUmzMikeKz2-19" target="PjfytmTnMHUmzMikeKz2-3" edge="1">
          <mxGeometry relative="1" as="geometry">
            <Array as="points" />
            <mxPoint x="232.5" y="166" as="sourcePoint" />
          </mxGeometry>
        </mxCell>
        <mxCell id="PjfytmTnMHUmzMikeKz2-13" value="" style="curved=1;startArrow=none;endArrow=block;exitX=0.5;exitY=1;entryX=0.5;entryY=0;rounded=0;exitDx=0;exitDy=0;entryDx=0;entryDy=0;" parent="1" source="PjfytmTnMHUmzMikeKz2-20" target="PjfytmTnMHUmzMikeKz2-21" edge="1">
          <mxGeometry relative="1" as="geometry">
            <Array as="points" />
            <mxPoint x="113.5" y="473" as="sourcePoint" />
            <mxPoint x="113.5" y="546" as="targetPoint" />
          </mxGeometry>
        </mxCell>
        <mxCell id="PjfytmTnMHUmzMikeKz2-18" value="Bắt đầu" style="ellipse;whiteSpace=wrap;html=1;" parent="1" vertex="1">
          <mxGeometry x="174" y="10" width="117" height="60" as="geometry" />
        </mxCell>
        <mxCell id="PjfytmTnMHUmzMikeKz2-19" value="Mở file lịch sử" style="shape=parallelogram;perimeter=parallelogramPerimeter;whiteSpace=wrap;html=1;fixedSize=1;" parent="1" vertex="1">
          <mxGeometry x="162.5" y="120" width="140" height="60" as="geometry" />
        </mxCell>
        <mxCell id="PjfytmTnMHUmzMikeKz2-20" value="Đọc dữ liệu" style="shape=parallelogram;perimeter=parallelogramPerimeter;whiteSpace=wrap;html=1;fixedSize=1;" parent="1" vertex="1">
          <mxGeometry x="55" y="430" width="120" height="60" as="geometry" />
        </mxCell>
        <mxCell id="NBP3WBWZj9JStzIS8WCl-3" style="edgeStyle=orthogonalEdgeStyle;rounded=0;orthogonalLoop=1;jettySize=auto;html=1;exitX=0.5;exitY=1;exitDx=0;exitDy=0;entryX=0.5;entryY=0;entryDx=0;entryDy=0;" edge="1" parent="1" source="PjfytmTnMHUmzMikeKz2-21" target="PjfytmTnMHUmzMikeKz2-7">
          <mxGeometry relative="1" as="geometry" />
        </mxCell>
        <mxCell id="PjfytmTnMHUmzMikeKz2-21" value="Hiển thị giao dịch" style="shape=parallelogram;perimeter=parallelogramPerimeter;whiteSpace=wrap;html=1;fixedSize=1;" parent="1" vertex="1">
          <mxGeometry x="45" y="550" width="140" height="60" as="geometry" />
        </mxCell>
        <mxCell id="PjfytmTnMHUmzMikeKz2-22" value="Thông báo không có lịch sử" style="shape=parallelogram;perimeter=parallelogramPerimeter;whiteSpace=wrap;html=1;fixedSize=1;" parent="1" vertex="1">
          <mxGeometry x="260" y="700" width="180" height="70" as="geometry" />
        </mxCell>
        <mxCell id="PjfytmTnMHUmzMikeKz2-23" value="Kết thúc" style="ellipse;whiteSpace=wrap;html=1;" parent="1" vertex="1">
          <mxGeometry x="172" y="860" width="120" height="60" as="geometry" />
        </mxCell>
        <mxCell id="NBP3WBWZj9JStzIS8WCl-8" style="edgeStyle=orthogonalEdgeStyle;rounded=0;orthogonalLoop=1;jettySize=auto;html=1;exitX=0.5;exitY=1;exitDx=0;exitDy=0;entryX=1;entryY=0.5;entryDx=0;entryDy=0;" edge="1" parent="1" source="PjfytmTnMHUmzMikeKz2-22" target="PjfytmTnMHUmzMikeKz2-23">
          <mxGeometry relative="1" as="geometry" />
        </mxCell>
      </root>
    </mxGraphModel>
  </diagram>
  <diagram id="_d2CN1_k_rs8K8TNOAC-" name="FormatMoney">
    <mxGraphModel dx="1050" dy="669" grid="1" gridSize="10" guides="1" tooltips="1" connect="1" arrows="1" fold="1" page="1" pageScale="1" pageWidth="850" pageHeight="1100" math="0" shadow="0">
      <root>
        <mxCell id="0" />
        <mxCell id="1" parent="0" />
        <mxCell id="DBRQ2rNf2wkirrtBlqfb-7" value="Trả về chuỗi định dạng" style="whiteSpace=wrap;strokeWidth=2;" parent="1" vertex="1">
          <mxGeometry x="312" y="660" width="227" height="50" as="geometry" />
        </mxCell>
        <mxCell id="DBRQ2rNf2wkirrtBlqfb-9" value="" style="curved=1;startArrow=none;endArrow=block;exitX=0.5;exitY=1;entryX=0.5;entryY=0;rounded=0;exitDx=0;exitDy=0;entryDx=0;entryDy=0;entryPerimeter=0;" parent="1" source="DBRQ2rNf2wkirrtBlqfb-16" target="DBRQ2rNf2wkirrtBlqfb-17" edge="1">
          <mxGeometry relative="1" as="geometry">
            <Array as="points" />
            <mxPoint x="425" y="68" as="sourcePoint" />
            <mxPoint x="424.5" y="118" as="targetPoint" />
          </mxGeometry>
        </mxCell>
        <mxCell id="DBRQ2rNf2wkirrtBlqfb-10" value="" style="curved=1;startArrow=none;endArrow=block;exitX=0.5;exitY=1;entryX=0.5;entryY=0;rounded=0;exitDx=0;exitDy=0;entryDx=0;entryDy=0;" parent="1" source="DBRQ2rNf2wkirrtBlqfb-17" target="DBRQ2rNf2wkirrtBlqfb-19" edge="1">
          <mxGeometry relative="1" as="geometry">
            <Array as="points" />
            <mxPoint x="424.5" y="166" as="sourcePoint" />
            <mxPoint x="424.5" y="217" as="targetPoint" />
          </mxGeometry>
        </mxCell>
        <mxCell id="DBRQ2rNf2wkirrtBlqfb-11" value="" style="curved=1;startArrow=none;endArrow=block;exitX=0.5;exitY=1;entryX=0.5;entryY=0;rounded=0;exitDx=0;exitDy=0;entryDx=0;entryDy=0;" parent="1" source="DBRQ2rNf2wkirrtBlqfb-19" target="DBRQ2rNf2wkirrtBlqfb-20" edge="1">
          <mxGeometry relative="1" as="geometry">
            <Array as="points" />
            <mxPoint x="424.5" y="283" as="sourcePoint" />
            <mxPoint x="425" y="333" as="targetPoint" />
          </mxGeometry>
        </mxCell>
        <mxCell id="DBRQ2rNf2wkirrtBlqfb-12" value="" style="curved=1;startArrow=none;endArrow=block;exitX=0.5;exitY=1;entryX=0.5;entryY=0;rounded=0;exitDx=0;exitDy=0;entryDx=0;entryDy=0;" parent="1" source="DBRQ2rNf2wkirrtBlqfb-20" target="DBRQ2rNf2wkirrtBlqfb-21" edge="1">
          <mxGeometry relative="1" as="geometry">
            <Array as="points" />
            <mxPoint x="425" y="399" as="sourcePoint" />
            <mxPoint x="425.5" y="449" as="targetPoint" />
          </mxGeometry>
        </mxCell>
        <mxCell id="DBRQ2rNf2wkirrtBlqfb-13" value="" style="curved=1;startArrow=none;endArrow=block;exitX=0.5;exitY=1;entryX=0.5;entryY=0;rounded=0;exitDx=0;exitDy=0;entryDx=0;entryDy=0;" parent="1" source="DBRQ2rNf2wkirrtBlqfb-21" target="DBRQ2rNf2wkirrtBlqfb-23" edge="1">
          <mxGeometry relative="1" as="geometry">
            <Array as="points" />
            <mxPoint x="425.5" y="497" as="sourcePoint" />
            <mxPoint x="425" y="547" as="targetPoint" />
          </mxGeometry>
        </mxCell>
        <mxCell id="DBRQ2rNf2wkirrtBlqfb-14" value="" style="curved=1;startArrow=none;endArrow=block;exitX=0.5;exitY=1;entryX=0.5;entryY=-0.01;rounded=0;exitDx=0;exitDy=0;" parent="1" source="DBRQ2rNf2wkirrtBlqfb-23" target="DBRQ2rNf2wkirrtBlqfb-7" edge="1">
          <mxGeometry relative="1" as="geometry">
            <Array as="points" />
            <mxPoint x="425" y="595" as="sourcePoint" />
          </mxGeometry>
        </mxCell>
        <mxCell id="DBRQ2rNf2wkirrtBlqfb-15" value="" style="curved=1;startArrow=none;endArrow=block;exitX=0.5;exitY=0.99;entryX=0.5;entryY=0;rounded=0;entryDx=0;entryDy=0;" parent="1" source="DBRQ2rNf2wkirrtBlqfb-7" target="DBRQ2rNf2wkirrtBlqfb-24" edge="1">
          <mxGeometry relative="1" as="geometry">
            <Array as="points" />
            <mxPoint x="425.5" y="760" as="targetPoint" />
          </mxGeometry>
        </mxCell>
        <mxCell id="DBRQ2rNf2wkirrtBlqfb-16" value="Bắt đầu" style="ellipse;whiteSpace=wrap;html=1;" parent="1" vertex="1">
          <mxGeometry x="369.5" y="10" width="110" height="60" as="geometry" />
        </mxCell>
        <mxCell id="DBRQ2rNf2wkirrtBlqfb-17" value="Nhận số tiền" style="shape=parallelogram;perimeter=parallelogramPerimeter;whiteSpace=wrap;html=1;fixedSize=1;" parent="1" vertex="1">
          <mxGeometry x="354.5" y="110" width="140" height="60" as="geometry" />
        </mxCell>
        <mxCell id="DBRQ2rNf2wkirrtBlqfb-19" value="Tách phần nguyên &amp;amp; thập phân" style="shape=parallelogram;perimeter=parallelogramPerimeter;whiteSpace=wrap;html=1;fixedSize=1;" parent="1" vertex="1">
          <mxGeometry x="319.5" y="220" width="210" height="70" as="geometry" />
        </mxCell>
        <mxCell id="DBRQ2rNf2wkirrtBlqfb-20" value="Thêm dấu phân cách hàng nghìn" style="shape=parallelogram;perimeter=parallelogramPerimeter;whiteSpace=wrap;html=1;fixedSize=1;" parent="1" vertex="1">
          <mxGeometry x="319.5" y="330" width="210" height="80" as="geometry" />
        </mxCell>
        <mxCell id="DBRQ2rNf2wkirrtBlqfb-21" value="Thêm phần thập phân" style="shape=parallelogram;perimeter=parallelogramPerimeter;whiteSpace=wrap;html=1;fixedSize=1;" parent="1" vertex="1">
          <mxGeometry x="339.5" y="450" width="170" height="60" as="geometry" />
        </mxCell>
        <mxCell id="DBRQ2rNf2wkirrtBlqfb-23" value="Thêm đơn vị tiền tệ" style="shape=parallelogram;perimeter=parallelogramPerimeter;whiteSpace=wrap;html=1;fixedSize=1;" parent="1" vertex="1">
          <mxGeometry x="339.5" y="550" width="170" height="60" as="geometry" />
        </mxCell>
        <mxCell id="DBRQ2rNf2wkirrtBlqfb-24" value="Kết thúc" style="ellipse;whiteSpace=wrap;html=1;" parent="1" vertex="1">
          <mxGeometry x="374.5" y="760" width="100" height="50" as="geometry" />
        </mxCell>
      </root>
    </mxGraphModel>
  </diagram>
  <diagram id="cab78LpeXon2AkK0_D38" name="CheckAccount">
    <mxGraphModel dx="1050" dy="669" grid="1" gridSize="10" guides="1" tooltips="1" connect="1" arrows="1" fold="1" page="1" pageScale="1" pageWidth="850" pageHeight="1100" math="0" shadow="0">
      <root>
        <mxCell id="0" />
        <mxCell id="1" parent="0" />
        <mxCell id="IZ6NL838bTvOV-CfZJpp-5" style="edgeStyle=orthogonalEdgeStyle;rounded=0;orthogonalLoop=1;jettySize=auto;html=1;exitX=1;exitY=0.5;exitDx=0;exitDy=0;" edge="1" parent="1" source="sGqLWpXBFKjb9SErnXLA-3" target="sGqLWpXBFKjb9SErnXLA-20">
          <mxGeometry relative="1" as="geometry" />
        </mxCell>
        <mxCell id="IZ6NL838bTvOV-CfZJpp-6" value="Có" style="edgeLabel;html=1;align=center;verticalAlign=middle;resizable=0;points=[];" vertex="1" connectable="0" parent="IZ6NL838bTvOV-CfZJpp-5">
          <mxGeometry x="-0.7889" y="2" relative="1" as="geometry">
            <mxPoint as="offset" />
          </mxGeometry>
        </mxCell>
        <mxCell id="sGqLWpXBFKjb9SErnXLA-3" value="Độ dài = 14?" style="rhombus;strokeWidth=2;whiteSpace=wrap;" parent="1" vertex="1">
          <mxGeometry x="356" y="227" width="137" height="137" as="geometry" />
        </mxCell>
        <mxCell id="IZ6NL838bTvOV-CfZJpp-7" style="edgeStyle=orthogonalEdgeStyle;rounded=0;orthogonalLoop=1;jettySize=auto;html=1;exitX=0;exitY=0.5;exitDx=0;exitDy=0;entryX=0.5;entryY=0;entryDx=0;entryDy=0;" edge="1" parent="1" source="sGqLWpXBFKjb9SErnXLA-6" target="sGqLWpXBFKjb9SErnXLA-21">
          <mxGeometry relative="1" as="geometry">
            <mxPoint x="290" y="720" as="targetPoint" />
          </mxGeometry>
        </mxCell>
        <mxCell id="IZ6NL838bTvOV-CfZJpp-8" value="Không" style="edgeLabel;html=1;align=center;verticalAlign=middle;resizable=0;points=[];" vertex="1" connectable="0" parent="IZ6NL838bTvOV-CfZJpp-7">
          <mxGeometry x="-0.6462" y="2" relative="1" as="geometry">
            <mxPoint x="9" y="-2" as="offset" />
          </mxGeometry>
        </mxCell>
        <mxCell id="sGqLWpXBFKjb9SErnXLA-6" value="Là số?" style="rhombus;strokeWidth=2;whiteSpace=wrap;" parent="1" vertex="1">
          <mxGeometry x="509" y="550" width="92" height="92" as="geometry" />
        </mxCell>
        <mxCell id="sGqLWpXBFKjb9SErnXLA-9" value="" style="curved=1;startArrow=none;endArrow=block;exitX=0.5;exitY=1;entryX=0.5;entryY=0;rounded=0;exitDx=0;exitDy=0;entryDx=0;entryDy=0;" parent="1" source="sGqLWpXBFKjb9SErnXLA-18" target="sGqLWpXBFKjb9SErnXLA-19" edge="1">
          <mxGeometry relative="1" as="geometry">
            <Array as="points" />
            <mxPoint x="424.5" y="78" as="sourcePoint" />
            <mxPoint x="424.5" y="128" as="targetPoint" />
          </mxGeometry>
        </mxCell>
        <mxCell id="sGqLWpXBFKjb9SErnXLA-10" value="" style="curved=1;startArrow=none;endArrow=block;exitX=0.5;exitY=1;entryX=0.5;entryY=0;rounded=0;exitDx=0;exitDy=0;" parent="1" source="sGqLWpXBFKjb9SErnXLA-19" target="sGqLWpXBFKjb9SErnXLA-3" edge="1">
          <mxGeometry relative="1" as="geometry">
            <Array as="points" />
            <mxPoint x="424.5" y="176" as="sourcePoint" />
          </mxGeometry>
        </mxCell>
        <mxCell id="sGqLWpXBFKjb9SErnXLA-13" value="" style="curved=1;startArrow=none;endArrow=block;exitX=0.5;exitY=1;entryX=0.5;entryY=0;rounded=0;exitDx=0;exitDy=0;" parent="1" source="sGqLWpXBFKjb9SErnXLA-20" target="sGqLWpXBFKjb9SErnXLA-6" edge="1">
          <mxGeometry relative="1" as="geometry">
            <Array as="points" />
            <mxPoint x="493" y="484" as="sourcePoint" />
          </mxGeometry>
        </mxCell>
        <mxCell id="sGqLWpXBFKjb9SErnXLA-18" value="Bắt đầu" style="ellipse;whiteSpace=wrap;html=1;" parent="1" vertex="1">
          <mxGeometry x="365" y="20" width="120" height="60" as="geometry" />
        </mxCell>
        <mxCell id="sGqLWpXBFKjb9SErnXLA-19" value="Nhập số tài khoản" style="shape=parallelogram;perimeter=parallelogramPerimeter;whiteSpace=wrap;html=1;fixedSize=1;" parent="1" vertex="1">
          <mxGeometry x="355" y="130" width="140" height="60" as="geometry" />
        </mxCell>
        <mxCell id="sGqLWpXBFKjb9SErnXLA-20" value="Kiểm tra từng ký tự" style="shape=parallelogram;perimeter=parallelogramPerimeter;whiteSpace=wrap;html=1;fixedSize=1;" parent="1" vertex="1">
          <mxGeometry x="485" y="440" width="140" height="70" as="geometry" />
        </mxCell>
        <mxCell id="IZ6NL838bTvOV-CfZJpp-11" style="edgeStyle=orthogonalEdgeStyle;rounded=0;orthogonalLoop=1;jettySize=auto;html=1;exitX=0.5;exitY=1;exitDx=0;exitDy=0;entryX=0;entryY=0.5;entryDx=0;entryDy=0;" edge="1" parent="1" source="sGqLWpXBFKjb9SErnXLA-21" target="sGqLWpXBFKjb9SErnXLA-24">
          <mxGeometry relative="1" as="geometry" />
        </mxCell>
        <mxCell id="sGqLWpXBFKjb9SErnXLA-21" value="Trả về sai" style="shape=parallelogram;perimeter=parallelogramPerimeter;whiteSpace=wrap;html=1;fixedSize=1;" parent="1" vertex="1">
          <mxGeometry x="240" y="721" width="130" height="60" as="geometry" />
        </mxCell>
        <mxCell id="IZ6NL838bTvOV-CfZJpp-12" style="edgeStyle=orthogonalEdgeStyle;rounded=0;orthogonalLoop=1;jettySize=auto;html=1;exitX=0.5;exitY=1;exitDx=0;exitDy=0;entryX=1;entryY=0.5;entryDx=0;entryDy=0;" edge="1" parent="1" source="sGqLWpXBFKjb9SErnXLA-23" target="sGqLWpXBFKjb9SErnXLA-24">
          <mxGeometry relative="1" as="geometry" />
        </mxCell>
        <mxCell id="sGqLWpXBFKjb9SErnXLA-23" value="Trả về đúng" style="shape=parallelogram;perimeter=parallelogramPerimeter;whiteSpace=wrap;html=1;fixedSize=1;" parent="1" vertex="1">
          <mxGeometry x="560" y="720" width="130" height="50" as="geometry" />
        </mxCell>
        <mxCell id="sGqLWpXBFKjb9SErnXLA-24" value="Kết thúc" style="ellipse;whiteSpace=wrap;html=1;" parent="1" vertex="1">
          <mxGeometry x="425" y="820" width="110" height="60" as="geometry" />
        </mxCell>
        <mxCell id="IZ6NL838bTvOV-CfZJpp-2" style="edgeStyle=orthogonalEdgeStyle;rounded=0;orthogonalLoop=1;jettySize=auto;html=1;exitX=0;exitY=0.5;exitDx=0;exitDy=0;entryX=0.5;entryY=0;entryDx=0;entryDy=0;" edge="1" parent="1" source="sGqLWpXBFKjb9SErnXLA-3" target="sGqLWpXBFKjb9SErnXLA-21">
          <mxGeometry relative="1" as="geometry" />
        </mxCell>
        <mxCell id="IZ6NL838bTvOV-CfZJpp-3" value="Không" style="edgeLabel;html=1;align=center;verticalAlign=middle;resizable=0;points=[];" vertex="1" connectable="0" parent="IZ6NL838bTvOV-CfZJpp-2">
          <mxGeometry x="-0.8809" y="4" relative="1" as="geometry">
            <mxPoint x="-7" y="-4" as="offset" />
          </mxGeometry>
        </mxCell>
        <mxCell id="IZ6NL838bTvOV-CfZJpp-9" style="edgeStyle=orthogonalEdgeStyle;rounded=0;orthogonalLoop=1;jettySize=auto;html=1;exitX=1;exitY=0.5;exitDx=0;exitDy=0;entryX=0.569;entryY=-0.016;entryDx=0;entryDy=0;entryPerimeter=0;" edge="1" parent="1" source="sGqLWpXBFKjb9SErnXLA-6" target="sGqLWpXBFKjb9SErnXLA-23">
          <mxGeometry relative="1" as="geometry" />
        </mxCell>
        <mxCell id="IZ6NL838bTvOV-CfZJpp-10" value="Có" style="edgeLabel;html=1;align=center;verticalAlign=middle;resizable=0;points=[];" vertex="1" connectable="0" parent="IZ6NL838bTvOV-CfZJpp-9">
          <mxGeometry x="-0.8233" y="-4" relative="1" as="geometry">
            <mxPoint x="5" y="-4" as="offset" />
          </mxGeometry>
        </mxCell>
      </root>
    </mxGraphModel>
  </diagram>
  <diagram id="S79MvGgc0E0zmYKdn93Z" name="CheckPIN">
    <mxGraphModel dx="1050" dy="669" grid="1" gridSize="10" guides="1" tooltips="1" connect="1" arrows="1" fold="1" page="1" pageScale="1" pageWidth="850" pageHeight="1100" math="0" shadow="0">
      <root>
        <mxCell id="0" />
        <mxCell id="1" parent="0" />
        <mxCell id="cx2FpfUMnOeiK_1EDSB_-1" style="edgeStyle=orthogonalEdgeStyle;rounded=0;orthogonalLoop=1;jettySize=auto;html=1;exitX=0;exitY=0.5;exitDx=0;exitDy=0;" edge="1" parent="1" source="d32E8QO4tKLFgg-N49fE-3" target="DJmaTOy_5TPNuwOfIB36-2">
          <mxGeometry relative="1" as="geometry" />
        </mxCell>
        <mxCell id="cx2FpfUMnOeiK_1EDSB_-2" value="Không" style="edgeLabel;html=1;align=center;verticalAlign=middle;resizable=0;points=[];" vertex="1" connectable="0" parent="cx2FpfUMnOeiK_1EDSB_-1">
          <mxGeometry x="-0.1911" y="2" relative="1" as="geometry">
            <mxPoint as="offset" />
          </mxGeometry>
        </mxCell>
        <mxCell id="cx2FpfUMnOeiK_1EDSB_-3" style="edgeStyle=orthogonalEdgeStyle;rounded=0;orthogonalLoop=1;jettySize=auto;html=1;exitX=1;exitY=0.5;exitDx=0;exitDy=0;" edge="1" parent="1" source="d32E8QO4tKLFgg-N49fE-3" target="DJmaTOy_5TPNuwOfIB36-1">
          <mxGeometry relative="1" as="geometry" />
        </mxCell>
        <mxCell id="cx2FpfUMnOeiK_1EDSB_-4" value="Có" style="edgeLabel;html=1;align=center;verticalAlign=middle;resizable=0;points=[];" vertex="1" connectable="0" parent="cx2FpfUMnOeiK_1EDSB_-3">
          <mxGeometry x="-0.8526" y="3" relative="1" as="geometry">
            <mxPoint as="offset" />
          </mxGeometry>
        </mxCell>
        <mxCell id="d32E8QO4tKLFgg-N49fE-3" value="Độ dài = 6?" style="rhombus;strokeWidth=2;whiteSpace=wrap;" parent="1" vertex="1">
          <mxGeometry x="345" y="217" width="128" height="128" as="geometry" />
        </mxCell>
        <mxCell id="cx2FpfUMnOeiK_1EDSB_-5" style="edgeStyle=orthogonalEdgeStyle;rounded=0;orthogonalLoop=1;jettySize=auto;html=1;exitX=0;exitY=0.5;exitDx=0;exitDy=0;" edge="1" parent="1" source="d32E8QO4tKLFgg-N49fE-6">
          <mxGeometry relative="1" as="geometry">
            <mxPoint x="320" y="700" as="targetPoint" />
          </mxGeometry>
        </mxCell>
        <mxCell id="cx2FpfUMnOeiK_1EDSB_-6" value="Không" style="edgeLabel;html=1;align=center;verticalAlign=middle;resizable=0;points=[];" vertex="1" connectable="0" parent="cx2FpfUMnOeiK_1EDSB_-5">
          <mxGeometry x="-0.7919" y="3" relative="1" as="geometry">
            <mxPoint as="offset" />
          </mxGeometry>
        </mxCell>
        <mxCell id="d32E8QO4tKLFgg-N49fE-6" value="Là số?" style="rhombus;strokeWidth=2;whiteSpace=wrap;" parent="1" vertex="1">
          <mxGeometry x="469" y="520" width="92" height="92" as="geometry" />
        </mxCell>
        <mxCell id="d32E8QO4tKLFgg-N49fE-9" value="" style="curved=1;startArrow=none;endArrow=block;exitX=0.5;exitY=1;entryX=0.5;entryY=0;rounded=0;entryDx=0;entryDy=0;exitDx=0;exitDy=0;" parent="1" source="DJmaTOy_5TPNuwOfIB36-5" target="d32E8QO4tKLFgg-N49fE-18" edge="1">
          <mxGeometry relative="1" as="geometry">
            <Array as="points" />
            <mxPoint x="409.5" y="68" as="sourcePoint" />
            <mxPoint x="409" y="118" as="targetPoint" />
          </mxGeometry>
        </mxCell>
        <mxCell id="d32E8QO4tKLFgg-N49fE-10" value="" style="curved=1;startArrow=none;endArrow=block;exitX=0.5;exitY=1;entryX=0.5;entryY=0;rounded=0;exitDx=0;exitDy=0;" parent="1" source="d32E8QO4tKLFgg-N49fE-18" target="d32E8QO4tKLFgg-N49fE-3" edge="1">
          <mxGeometry relative="1" as="geometry">
            <Array as="points" />
            <mxPoint x="409" y="166" as="sourcePoint" />
          </mxGeometry>
        </mxCell>
        <mxCell id="d32E8QO4tKLFgg-N49fE-13" value="" style="curved=1;startArrow=none;endArrow=block;exitX=0.5;exitY=1;entryX=0.5;entryY=0;rounded=0;exitDx=0;exitDy=0;" parent="1" source="DJmaTOy_5TPNuwOfIB36-1" target="d32E8QO4tKLFgg-N49fE-6" edge="1">
          <mxGeometry relative="1" as="geometry">
            <Array as="points" />
            <mxPoint x="478" y="465" as="sourcePoint" />
          </mxGeometry>
        </mxCell>
        <mxCell id="d32E8QO4tKLFgg-N49fE-18" value="Nhập mã PIN" style="shape=parallelogram;perimeter=parallelogramPerimeter;whiteSpace=wrap;html=1;fixedSize=1;" parent="1" vertex="1">
          <mxGeometry x="339.5" y="120" width="140" height="60" as="geometry" />
        </mxCell>
        <mxCell id="DJmaTOy_5TPNuwOfIB36-1" value="Kiểm tra từng ký tự" style="shape=parallelogram;perimeter=parallelogramPerimeter;whiteSpace=wrap;html=1;fixedSize=1;" parent="1" vertex="1">
          <mxGeometry x="440" y="410" width="150" height="60" as="geometry" />
        </mxCell>
        <mxCell id="cx2FpfUMnOeiK_1EDSB_-11" style="edgeStyle=orthogonalEdgeStyle;rounded=0;orthogonalLoop=1;jettySize=auto;html=1;exitX=0.5;exitY=1;exitDx=0;exitDy=0;entryX=0;entryY=0.5;entryDx=0;entryDy=0;" edge="1" parent="1" source="DJmaTOy_5TPNuwOfIB36-2" target="DJmaTOy_5TPNuwOfIB36-4">
          <mxGeometry relative="1" as="geometry" />
        </mxCell>
        <mxCell id="DJmaTOy_5TPNuwOfIB36-2" value="Trả về sai" style="shape=parallelogram;perimeter=parallelogramPerimeter;whiteSpace=wrap;html=1;fixedSize=1;" parent="1" vertex="1">
          <mxGeometry x="260" y="703" width="120" height="60" as="geometry" />
        </mxCell>
        <mxCell id="cx2FpfUMnOeiK_1EDSB_-12" style="edgeStyle=orthogonalEdgeStyle;rounded=0;orthogonalLoop=1;jettySize=auto;html=1;exitX=0.5;exitY=1;exitDx=0;exitDy=0;entryX=1;entryY=0.5;entryDx=0;entryDy=0;" edge="1" parent="1" source="DJmaTOy_5TPNuwOfIB36-3" target="DJmaTOy_5TPNuwOfIB36-4">
          <mxGeometry relative="1" as="geometry" />
        </mxCell>
        <mxCell id="DJmaTOy_5TPNuwOfIB36-3" value="Trả về đúng" style="shape=parallelogram;perimeter=parallelogramPerimeter;whiteSpace=wrap;html=1;fixedSize=1;" parent="1" vertex="1">
          <mxGeometry x="520" y="703" width="120" height="60" as="geometry" />
        </mxCell>
        <mxCell id="DJmaTOy_5TPNuwOfIB36-4" value="Kết thúc" style="ellipse;whiteSpace=wrap;html=1;" parent="1" vertex="1">
          <mxGeometry x="365" y="790" width="120" height="60" as="geometry" />
        </mxCell>
        <mxCell id="DJmaTOy_5TPNuwOfIB36-5" value="Bắt đầu" style="ellipse;whiteSpace=wrap;html=1;" parent="1" vertex="1">
          <mxGeometry x="354.5" y="20" width="110" height="50" as="geometry" />
        </mxCell>
        <mxCell id="cx2FpfUMnOeiK_1EDSB_-9" style="edgeStyle=orthogonalEdgeStyle;rounded=0;orthogonalLoop=1;jettySize=auto;html=1;exitX=1;exitY=0.5;exitDx=0;exitDy=0;entryX=0.577;entryY=0.017;entryDx=0;entryDy=0;entryPerimeter=0;" edge="1" parent="1" source="d32E8QO4tKLFgg-N49fE-6" target="DJmaTOy_5TPNuwOfIB36-3">
          <mxGeometry relative="1" as="geometry" />
        </mxCell>
        <mxCell id="cx2FpfUMnOeiK_1EDSB_-10" value="Có" style="edgeLabel;html=1;align=center;verticalAlign=middle;resizable=0;points=[];" vertex="1" connectable="0" parent="cx2FpfUMnOeiK_1EDSB_-9">
          <mxGeometry x="-0.8243" y="-1" relative="1" as="geometry">
            <mxPoint as="offset" />
          </mxGeometry>
        </mxCell>
      </root>
    </mxGraphModel>
  </diagram>
  <diagram id="w5Npf6m4kpsYib8jun6M" name="depositMoney">
    <mxGraphModel dx="1434" dy="884" grid="1" gridSize="10" guides="1" tooltips="1" connect="1" arrows="1" fold="1" page="1" pageScale="1" pageWidth="850" pageHeight="1100" math="0" shadow="0">
      <root>
        <mxCell id="0" />
        <mxCell id="1" parent="0" />
        <mxCell id="sSyWgpyqZRBHmlnYu9zf-35" style="edgeStyle=orthogonalEdgeStyle;rounded=0;orthogonalLoop=1;jettySize=auto;html=1;exitX=0;exitY=0.5;exitDx=0;exitDy=0;entryX=0.5;entryY=0;entryDx=0;entryDy=0;" edge="1" parent="1" source="sSyWgpyqZRBHmlnYu9zf-2" target="sSyWgpyqZRBHmlnYu9zf-34">
          <mxGeometry relative="1" as="geometry" />
        </mxCell>
        <mxCell id="sSyWgpyqZRBHmlnYu9zf-41" value="Có" style="edgeLabel;html=1;align=center;verticalAlign=middle;resizable=0;points=[];" vertex="1" connectable="0" parent="sSyWgpyqZRBHmlnYu9zf-35">
          <mxGeometry x="-0.707" y="-2" relative="1" as="geometry">
            <mxPoint as="offset" />
          </mxGeometry>
        </mxCell>
        <mxCell id="sSyWgpyqZRBHmlnYu9zf-39" style="edgeStyle=orthogonalEdgeStyle;rounded=0;orthogonalLoop=1;jettySize=auto;html=1;exitX=1;exitY=0.5;exitDx=0;exitDy=0;" edge="1" parent="1" source="sSyWgpyqZRBHmlnYu9zf-2" target="sSyWgpyqZRBHmlnYu9zf-38">
          <mxGeometry relative="1" as="geometry" />
        </mxCell>
        <mxCell id="sSyWgpyqZRBHmlnYu9zf-40" value="Không" style="edgeLabel;html=1;align=center;verticalAlign=middle;resizable=0;points=[];" vertex="1" connectable="0" parent="sSyWgpyqZRBHmlnYu9zf-39">
          <mxGeometry x="-0.88" relative="1" as="geometry">
            <mxPoint as="offset" />
          </mxGeometry>
        </mxCell>
        <mxCell id="sSyWgpyqZRBHmlnYu9zf-2" value="depositAmount &gt; 0?" style="rhombus;strokeWidth=2;whiteSpace=wrap;" vertex="1" parent="1">
          <mxGeometry x="242" y="290" width="193" height="160" as="geometry" />
        </mxCell>
        <mxCell id="sSyWgpyqZRBHmlnYu9zf-43" style="edgeStyle=orthogonalEdgeStyle;rounded=0;orthogonalLoop=1;jettySize=auto;html=1;exitX=0;exitY=0.5;exitDx=0;exitDy=0;entryX=0.5;entryY=0;entryDx=0;entryDy=0;" edge="1" parent="1" source="sSyWgpyqZRBHmlnYu9zf-8" target="sSyWgpyqZRBHmlnYu9zf-42">
          <mxGeometry relative="1" as="geometry" />
        </mxCell>
        <mxCell id="sSyWgpyqZRBHmlnYu9zf-44" value="Có" style="edgeLabel;html=1;align=center;verticalAlign=middle;resizable=0;points=[];" vertex="1" connectable="0" parent="sSyWgpyqZRBHmlnYu9zf-43">
          <mxGeometry x="-0.2606" relative="1" as="geometry">
            <mxPoint as="offset" />
          </mxGeometry>
        </mxCell>
        <mxCell id="sSyWgpyqZRBHmlnYu9zf-46" style="edgeStyle=orthogonalEdgeStyle;rounded=0;orthogonalLoop=1;jettySize=auto;html=1;exitX=1;exitY=0.5;exitDx=0;exitDy=0;" edge="1" parent="1" source="sSyWgpyqZRBHmlnYu9zf-8" target="sSyWgpyqZRBHmlnYu9zf-45">
          <mxGeometry relative="1" as="geometry" />
        </mxCell>
        <mxCell id="sSyWgpyqZRBHmlnYu9zf-47" value="Không" style="edgeLabel;html=1;align=center;verticalAlign=middle;resizable=0;points=[];" vertex="1" connectable="0" parent="sSyWgpyqZRBHmlnYu9zf-46">
          <mxGeometry x="-0.7925" y="4" relative="1" as="geometry">
            <mxPoint as="offset" />
          </mxGeometry>
        </mxCell>
        <mxCell id="sSyWgpyqZRBHmlnYu9zf-8" value="Có in biên lai?" style="rhombus;strokeWidth=2;whiteSpace=wrap;" vertex="1" parent="1">
          <mxGeometry x="120" y="890" width="150" height="150" as="geometry" />
        </mxCell>
        <mxCell id="sSyWgpyqZRBHmlnYu9zf-18" value="" style="curved=1;startArrow=none;endArrow=block;exitX=0.5;exitY=1;entryX=0.5;entryY=0;rounded=0;exitDx=0;exitDy=0;entryDx=0;entryDy=0;" edge="1" parent="1" source="sSyWgpyqZRBHmlnYu9zf-34" target="sSyWgpyqZRBHmlnYu9zf-36">
          <mxGeometry relative="1" as="geometry">
            <Array as="points" />
            <mxPoint x="218" y="550" as="sourcePoint" />
            <mxPoint x="350" y="623" as="targetPoint" />
          </mxGeometry>
        </mxCell>
        <mxCell id="sSyWgpyqZRBHmlnYu9zf-19" value="" style="curved=1;startArrow=none;endArrow=block;entryX=0.5;entryY=0;rounded=0;exitX=0.5;exitY=1;exitDx=0;exitDy=0;entryDx=0;entryDy=0;" edge="1" parent="1" source="sSyWgpyqZRBHmlnYu9zf-36" target="sSyWgpyqZRBHmlnYu9zf-37">
          <mxGeometry relative="1" as="geometry">
            <Array as="points" />
            <mxPoint x="350" y="690" as="sourcePoint" />
            <mxPoint x="349.5" y="740" as="targetPoint" />
          </mxGeometry>
        </mxCell>
        <mxCell id="sSyWgpyqZRBHmlnYu9zf-21" value="" style="curved=1;startArrow=none;endArrow=block;exitX=0.5;exitY=1;entryX=0.5;entryY=0;rounded=0;exitDx=0;exitDy=0;" edge="1" parent="1" source="sSyWgpyqZRBHmlnYu9zf-37" target="sSyWgpyqZRBHmlnYu9zf-8">
          <mxGeometry relative="1" as="geometry">
            <Array as="points" />
            <mxPoint x="350" y="928" as="sourcePoint" />
          </mxGeometry>
        </mxCell>
        <mxCell id="sSyWgpyqZRBHmlnYu9zf-32" value="" style="edgeStyle=orthogonalEdgeStyle;rounded=0;orthogonalLoop=1;jettySize=auto;html=1;" edge="1" parent="1" source="sSyWgpyqZRBHmlnYu9zf-29" target="sSyWgpyqZRBHmlnYu9zf-31">
          <mxGeometry relative="1" as="geometry" />
        </mxCell>
        <mxCell id="sSyWgpyqZRBHmlnYu9zf-29" value="Bắt đầu" style="ellipse;whiteSpace=wrap;html=1;" vertex="1" parent="1">
          <mxGeometry x="425" y="30" width="110" height="60" as="geometry" />
        </mxCell>
        <mxCell id="sSyWgpyqZRBHmlnYu9zf-33" style="edgeStyle=orthogonalEdgeStyle;rounded=0;orthogonalLoop=1;jettySize=auto;html=1;exitX=0.5;exitY=1;exitDx=0;exitDy=0;" edge="1" parent="1" source="sSyWgpyqZRBHmlnYu9zf-31" target="sSyWgpyqZRBHmlnYu9zf-2">
          <mxGeometry relative="1" as="geometry" />
        </mxCell>
        <mxCell id="sSyWgpyqZRBHmlnYu9zf-31" value="Nhập số tiền muốn gửi" style="shape=parallelogram;perimeter=parallelogramPerimeter;whiteSpace=wrap;html=1;fixedSize=1;" vertex="1" parent="1">
          <mxGeometry x="395" y="150" width="170" height="70" as="geometry" />
        </mxCell>
        <mxCell id="sSyWgpyqZRBHmlnYu9zf-34" value="Thêm tiền vào tài khoản" style="shape=parallelogram;perimeter=parallelogramPerimeter;whiteSpace=wrap;html=1;fixedSize=1;" vertex="1" parent="1">
          <mxGeometry x="115" y="480" width="160" height="70" as="geometry" />
        </mxCell>
        <mxCell id="sSyWgpyqZRBHmlnYu9zf-36" value="Ghi lại giao dịch Gửi tiền vào lịch sử" style="shape=parallelogram;perimeter=parallelogramPerimeter;whiteSpace=wrap;html=1;fixedSize=1;" vertex="1" parent="1">
          <mxGeometry x="85" y="620" width="220" height="70" as="geometry" />
        </mxCell>
        <mxCell id="sSyWgpyqZRBHmlnYu9zf-37" value="Cập nhật file lưu trữ số dư tài khoản" style="shape=parallelogram;perimeter=parallelogramPerimeter;whiteSpace=wrap;html=1;fixedSize=1;" vertex="1" parent="1">
          <mxGeometry x="100" y="750" width="190" height="70" as="geometry" />
        </mxCell>
        <mxCell id="sSyWgpyqZRBHmlnYu9zf-38" value="Số tiền không hợp lệ" style="shape=parallelogram;perimeter=parallelogramPerimeter;whiteSpace=wrap;html=1;fixedSize=1;" vertex="1" parent="1">
          <mxGeometry x="410" y="620" width="150" height="60" as="geometry" />
        </mxCell>
        <mxCell id="sSyWgpyqZRBHmlnYu9zf-52" style="edgeStyle=orthogonalEdgeStyle;rounded=0;orthogonalLoop=1;jettySize=auto;html=1;exitX=0.5;exitY=1;exitDx=0;exitDy=0;" edge="1" parent="1" source="sSyWgpyqZRBHmlnYu9zf-42">
          <mxGeometry relative="1" as="geometry">
            <mxPoint x="228.5" y="1460" as="targetPoint" />
          </mxGeometry>
        </mxCell>
        <mxCell id="sSyWgpyqZRBHmlnYu9zf-42" value="In thành công biên lai" style="shape=parallelogram;perimeter=parallelogramPerimeter;whiteSpace=wrap;html=1;fixedSize=1;" vertex="1" parent="1">
          <mxGeometry x="10" y="1100" width="160" height="70" as="geometry" />
        </mxCell>
        <mxCell id="sSyWgpyqZRBHmlnYu9zf-49" value="" style="edgeStyle=orthogonalEdgeStyle;rounded=0;orthogonalLoop=1;jettySize=auto;html=1;" edge="1" parent="1" source="sSyWgpyqZRBHmlnYu9zf-45" target="sSyWgpyqZRBHmlnYu9zf-48">
          <mxGeometry relative="1" as="geometry" />
        </mxCell>
        <mxCell id="sSyWgpyqZRBHmlnYu9zf-45" value="Thông báo Gửi tiền thành công" style="shape=parallelogram;perimeter=parallelogramPerimeter;whiteSpace=wrap;html=1;fixedSize=1;" vertex="1" parent="1">
          <mxGeometry x="242" y="1100" width="210" height="70" as="geometry" />
        </mxCell>
        <mxCell id="sSyWgpyqZRBHmlnYu9zf-53" style="edgeStyle=orthogonalEdgeStyle;rounded=0;orthogonalLoop=1;jettySize=auto;html=1;exitX=0.5;exitY=1;exitDx=0;exitDy=0;entryX=0.5;entryY=0;entryDx=0;entryDy=0;" edge="1" parent="1" source="sSyWgpyqZRBHmlnYu9zf-48">
          <mxGeometry relative="1" as="geometry">
            <mxPoint x="228.5" y="1460" as="targetPoint" />
          </mxGeometry>
        </mxCell>
        <mxCell id="sSyWgpyqZRBHmlnYu9zf-48" value="Chờ phím bấm" style="shape=parallelogram;perimeter=parallelogramPerimeter;whiteSpace=wrap;html=1;fixedSize=1;" vertex="1" parent="1">
          <mxGeometry x="287" y="1230" width="120" height="60" as="geometry" />
        </mxCell>
        <mxCell id="sSyWgpyqZRBHmlnYu9zf-56" style="edgeStyle=orthogonalEdgeStyle;rounded=0;orthogonalLoop=1;jettySize=auto;html=1;exitX=1;exitY=0.5;exitDx=0;exitDy=0;" edge="1" parent="1" source="sSyWgpyqZRBHmlnYu9zf-58" target="sSyWgpyqZRBHmlnYu9zf-55">
          <mxGeometry relative="1" as="geometry">
            <mxPoint x="350" y="1690" as="targetPoint" />
            <mxPoint x="225" y="1520" as="sourcePoint" />
          </mxGeometry>
        </mxCell>
        <mxCell id="sSyWgpyqZRBHmlnYu9zf-59" style="edgeStyle=orthogonalEdgeStyle;rounded=0;orthogonalLoop=1;jettySize=auto;html=1;exitX=1;exitY=0.5;exitDx=0;exitDy=0;entryX=1;entryY=0.5;entryDx=0;entryDy=0;" edge="1" parent="1" source="sSyWgpyqZRBHmlnYu9zf-55" target="sSyWgpyqZRBHmlnYu9zf-31">
          <mxGeometry relative="1" as="geometry">
            <Array as="points">
              <mxPoint x="620" y="1630" />
              <mxPoint x="620" y="185" />
            </Array>
          </mxGeometry>
        </mxCell>
        <mxCell id="sSyWgpyqZRBHmlnYu9zf-55" value="Kết thúc" style="ellipse;whiteSpace=wrap;html=1;" vertex="1" parent="1">
          <mxGeometry x="287" y="1600" width="120" height="60" as="geometry" />
        </mxCell>
        <mxCell id="sSyWgpyqZRBHmlnYu9zf-58" value="Người dùng muốn&amp;nbsp;&lt;div&gt;giao dịch thêm?&lt;/div&gt;" style="rhombus;whiteSpace=wrap;html=1;" vertex="1" parent="1">
          <mxGeometry x="155" y="1460" width="150" height="110" as="geometry" />
        </mxCell>
      </root>
    </mxGraphModel>
  </diagram>
</mxfile>
